<?xml version="1.0" encoding="UTF-8" standalone="no"?>
<!-- Created with Inkscape (http://www.inkscape.org/) -->

<svg
   xmlns:dc="http://purl.org/dc/elements/1.1/"
   xmlns:cc="http://creativecommons.org/ns#"
   xmlns:rdf="http://www.w3.org/1999/02/22-rdf-syntax-ns#"
   xmlns:svg="http://www.w3.org/2000/svg"
   xmlns="http://www.w3.org/2000/svg"
   xmlns:sodipodi="http://sodipodi.sourceforge.net/DTD/sodipodi-0.dtd"
   xmlns:inkscape="http://www.inkscape.org/namespaces/inkscape"
   width="584.06"
   height="584.06"
   id="svg2"
   version="1.1"
   inkscape:version="0.48.0 r9654"
   sodipodi:docname="appicon.svg">
  <defs
     id="defs4" />
  <sodipodi:namedview
     id="base"
     pagecolor="#ffffff"
     bordercolor="#666666"
     borderopacity="1.0"
     inkscape:pageopacity="0.0"
     inkscape:pageshadow="2"
     inkscape:zoom="1.03"
     inkscape:cx="242.41603"
     inkscape:cy="207.66768"
     inkscape:document-units="px"
     inkscape:current-layer="layer1"
     showgrid="false"
     inkscape:window-width="1678"
     inkscape:window-height="1029"
     inkscape:window-x="0"
     inkscape:window-y="19"
     inkscape:window-maximized="0"
     fit-margin-top="0"
     fit-margin-left="0"
     fit-margin-right="0"
     fit-margin-bottom="0" />
  <metadata
     id="metadata7">
    <rdf:RDF>
      <cc:Work
         rdf:about="">
        <dc:format>image/svg+xml</dc:format>
        <dc:type
           rdf:resource="http://purl.org/dc/dcmitype/StillImage" />
        <dc:title />
      </cc:Work>
    </rdf:RDF>
  </metadata>
  <g
     inkscape:label="Ebene 1"
     inkscape:groupmode="layer"
     id="layer1"
     transform="translate(-84.40241,-69.817236)">
    <path
       style="fill:#f5bd91;fill-opacity:1;stroke:#000000;stroke-width:1px;stroke-linecap:butt;stroke-linejoin:miter;stroke-opacity:1"
       d="m 413.59223,482.69893 c -2.91262,12.62136 -7.76699,19.41748 -14.5631,20.38835 -6.79612,0.97088 -26.2136,-18.4466 -26.2136,-18.4466 z"
       id="path4031"
       inkscape:connector-curvature="0" />
    <path
       style="fill:#f5bd91;fill-opacity:1;stroke:#000000;stroke-width:1px;stroke-linecap:butt;stroke-linejoin:miter;stroke-opacity:1"
       d="m 230.09709,480.75718 c -11.65049,20.38835 -14.56311,33.00971 -6.79612,35.92234 7.76699,2.91262 17.47573,4.85436 23.30097,0 5.82524,-4.85437 32.03884,-35.92234 32.03884,-35.92234 z"
       id="path4027"
       inkscape:connector-curvature="0" />
    <path
       style="fill:#f5bd91;fill-opacity:1;stroke:#000000;stroke-width:1px;stroke-linecap:butt;stroke-linejoin:miter;stroke-opacity:1"
       d="m 133.00971,427.35913 c -31.06796,7.76699 -54.368933,10.67961 -46.601943,22.33009 7.76699,11.65049 19.417473,21.35923 33.980583,14.56311 14.56311,-6.79612 38.83495,-16.50485 38.83495,-16.50485 z"
       id="path4025"
       inkscape:connector-curvature="0" />
    <path
       style="fill:#f5bd91;fill-opacity:1;stroke:#000000;stroke-width:1px;stroke-linecap:butt;stroke-linejoin:miter;stroke-opacity:1"
       d="m 138.83495,365.2232 c -33.98058,9.70874 -45.631067,13.59224 -29.12621,18.44661 16.50485,4.85437 36.8932,0 36.8932,0 z"
       id="path4023"
       inkscape:connector-curvature="0" />
    <path
       style="fill:#080b0e;fill-opacity:1;stroke:#000000;stroke-width:1px;stroke-linecap:butt;stroke-linejoin:miter;stroke-opacity:1"
       d="m 400.97087,361.33971 230.09709,-157.28155 36.89321,92.23301 -156.31068,89.32038 z"
       id="path4021"
       inkscape:connector-curvature="0" />
    <path
       sodipodi:type="arc"
       style="color:#000000;fill:#898a9b;fill-opacity:1;fill-rule:nonzero;stroke:#ffffff;stroke-width:0.80000001;stroke-linecap:butt;stroke-linejoin:miter;stroke-miterlimit:4;stroke-opacity:1;stroke-dasharray:none;stroke-dashoffset:0;marker:none;visibility:visible;display:inline;overflow:visible;enable-background:accumulate"
       id="path3753"
       sodipodi:cx="353.0303"
       sodipodi:cy="350.84705"
       sodipodi:rx="210.60606"
       sodipodi:ry="43.939392"
       d="m 563.63637,350.84705 a 210.60606,43.939392 0 1 1 -421.21213,0 210.60606,43.939392 0 1 1 421.21213,0 z"
       transform="matrix(1.1688479,-0.12124867,0.13440817,2.3823545,-90.098484,-409.12695)" />
    <path
       sodipodi:type="arc"
       style="color:#000000;fill:#9e9da7;fill-opacity:1;fill-rule:nonzero;stroke:#ffffff;stroke-width:0.80000001;stroke-linecap:butt;stroke-linejoin:miter;stroke-miterlimit:4;stroke-opacity:1;stroke-dasharray:none;stroke-dashoffset:0;marker:none;visibility:visible;display:inline;overflow:visible;enable-background:accumulate"
       id="path3753-2"
       sodipodi:cx="353.0303"
       sodipodi:cy="350.84705"
       sodipodi:rx="210.60606"
       sodipodi:ry="43.939392"
       d="m 563.63637,350.84705 a 210.60606,43.939392 0 1 1 -421.21213,0 210.60606,43.939392 0 1 1 421.21213,0 z"
       transform="matrix(1.0066483,-0.10442314,0.11575651,2.051758,-27.340698,-300.7752)" />
    <rect
       style="color:#000000;fill:#34b5ce;fill-opacity:1;fill-rule:nonzero;stroke:#ffffff;stroke-width:0.80000001;stroke-linecap:butt;stroke-linejoin:miter;stroke-miterlimit:4;stroke-opacity:1;stroke-dasharray:none;stroke-dashoffset:0;marker:none;visibility:visible;display:inline;overflow:visible;enable-background:accumulate"
       id="rect3755"
       width="296.9697"
       height="195.45454"
       x="217.99059"
       y="215.85573" />
    <path
       style="fill:#fafafd;fill-opacity:1;stroke:#000000;stroke-width:1px;stroke-linecap:butt;stroke-linejoin:miter;stroke-opacity:1"
       d="M 219.50574,227.97695 211.92998,362.82544 524.05119,373.4315 511.92998,234.03756 z"
       id="path3757"
       inkscape:connector-curvature="0" />
    <path
       style="fill:#fafafd;fill-opacity:1;stroke:#000000;stroke-width:1px;stroke-linecap:butt;stroke-linejoin:miter;stroke-opacity:1"
       d="m 216.37094,362.92993 0,7.75862 297.41379,3.44828 z"
       id="path3759"
       inkscape:connector-curvature="0" />
    <path
       style="fill:#fafafd;fill-opacity:1;stroke:#000000;stroke-width:1px;stroke-linecap:butt;stroke-linejoin:miter;stroke-opacity:1"
       d="m 215.50887,362.92993 -1.72414,12.93104 300.86207,3.44827 -1.72413,-5.17241 -293.96552,-3.44828 z"
       id="path3761"
       inkscape:connector-curvature="0" />
    <path
       style="fill:#fafaf8;fill-opacity:1;stroke:#000000;stroke-width:1px;stroke-linecap:butt;stroke-linejoin:miter;stroke-opacity:1"
       d="m 520.68129,375.86097 0.86206,6.89655 -59.48275,-3.44828 53.44827,0 -2.5862,-6.89655 z"
       id="path3763"
       inkscape:connector-curvature="0" />
    <path
       style="fill:#fafa0e;fill-opacity:1;stroke:#000000;stroke-width:1px;stroke-linecap:butt;stroke-linejoin:miter;stroke-opacity:1"
       d="m 230.16404,210.34372 8.62069,-0.86206 -2.5862,33.62069 -6.89655,0 z"
       id="path3765"
       inkscape:connector-curvature="0" />
    <path
       style="fill:#fafa0e;fill-opacity:1;stroke:#000000;stroke-width:1px;stroke-linecap:butt;stroke-linejoin:miter;stroke-opacity:1"
       d="m 259.90542,209.95836 8.62069,-0.86206 -2.5862,33.62069 -6.89655,0 z"
       id="path3765-0"
       inkscape:connector-curvature="0" />
    <path
       style="fill:#fafa0e;fill-opacity:1;stroke:#000000;stroke-width:1px;stroke-linecap:butt;stroke-linejoin:miter;stroke-opacity:1"
       d="m 289.21576,209.91268 8.62069,-0.86206 -2.5862,33.62069 -6.89655,0 z"
       id="path3765-2"
       inkscape:connector-curvature="0" />
    <path
       style="fill:#fafa0e;fill-opacity:1;stroke:#000000;stroke-width:1px;stroke-linecap:butt;stroke-linejoin:miter;stroke-opacity:1"
       d="m 318.52611,210.77475 8.62069,-0.86206 -2.5862,33.62069 -6.89655,0 z"
       id="path3765-8"
       inkscape:connector-curvature="0" />
    <path
       style="fill:#fafa0e;fill-opacity:1;stroke:#000000;stroke-width:1px;stroke-linecap:butt;stroke-linejoin:miter;stroke-opacity:1"
       d="m 347.83645,209.91268 8.62069,-0.86206 -2.5862,33.62069 -6.89655,0 z"
       id="path3765-3"
       inkscape:connector-curvature="0" />
    <path
       style="fill:#fafa0e;fill-opacity:1;stroke:#000000;stroke-width:1px;stroke-linecap:butt;stroke-linejoin:miter;stroke-opacity:1"
       d="m 375.42266,210.77475 8.62069,-0.86206 -2.5862,33.62069 -6.89655,0 z"
       id="path3765-80"
       inkscape:connector-curvature="0" />
    <path
       style="fill:#fafa0e;fill-opacity:1;stroke:#000000;stroke-width:1px;stroke-linecap:butt;stroke-linejoin:miter;stroke-opacity:1"
       d="m 405.59508,210.77475 8.62069,-0.86206 -2.5862,33.62069 -6.89655,0 z"
       id="path3765-4"
       inkscape:connector-curvature="0" />
    <path
       style="fill:#fafa0e;fill-opacity:1;stroke:#000000;stroke-width:1px;stroke-linecap:butt;stroke-linejoin:miter;stroke-opacity:1"
       d="m 436.62956,209.91268 8.62069,-0.86206 -2.5862,33.62069 -6.89655,0 z"
       id="path3765-09"
       inkscape:connector-curvature="0" />
    <path
       style="fill:#fafa0e;fill-opacity:1;stroke:#000000;stroke-width:1px;stroke-linecap:butt;stroke-linejoin:miter;stroke-opacity:1"
       d="m 467.66404,209.91268 8.62069,-0.86206 -2.5862,33.62069 -6.89655,0 z"
       id="path3765-1"
       inkscape:connector-curvature="0" />
    <path
       style="fill:#fafa0e;fill-opacity:1;stroke:#000000;stroke-width:1px;stroke-linecap:butt;stroke-linejoin:miter;stroke-opacity:1"
       d="m 497.83646,210.77475 8.62069,-0.86206 -2.5862,33.62069 -6.89655,0 z"
       id="path3765-9"
       inkscape:connector-curvature="0" />
    <path
       style="fill:none;stroke:#000000;stroke-width:1px;stroke-linecap:butt;stroke-linejoin:miter;stroke-opacity:1"
       d="M 226.71577,247.41269 221.54335,352.5851 511.19853,363.792 501.71577,250.86097 z"
       id="path3841"
       inkscape:connector-curvature="0" />
    <path
       style="fill:none;stroke:#000000;stroke-width:1px;stroke-linecap:butt;stroke-linejoin:miter;stroke-opacity:1"
       d="m 224.99163,264.65407 278.44828,4.31034"
       id="path3843"
       inkscape:connector-curvature="0" />
    <path
       style="fill:none;stroke:#000000;stroke-width:1px;stroke-linecap:butt;stroke-linejoin:miter;stroke-opacity:1"
       d="m 224.99163,282.75752 279.31035,8.62069"
       id="path3845"
       inkscape:connector-curvature="0" />
    <path
       style="fill:none;stroke:#000000;stroke-width:1px;stroke-linecap:butt;stroke-linejoin:miter;stroke-opacity:1"
       d="M 223.26749,308.61959 506.88818,313.792"
       id="path3847"
       inkscape:connector-curvature="0" />
    <path
       style="fill:none;stroke:#000000;stroke-width:1px;stroke-linecap:butt;stroke-linejoin:miter;stroke-opacity:1"
       d="M 222.40542,328.44717 508.61232,338.792"
       id="path3849"
       inkscape:connector-curvature="0" />
    <path
       style="fill:none;stroke:#000000;stroke-width:1px;stroke-linecap:butt;stroke-linejoin:miter;stroke-opacity:1"
       d="M 270.68129,248.27476 268.09508,352.5851"
       id="path3851"
       inkscape:connector-curvature="0" />
    <path
       style="fill:none;stroke:#000000;stroke-width:1px;stroke-linecap:butt;stroke-linejoin:miter;stroke-opacity:1"
       d="m 310.33646,249.13683 0,106.89655"
       id="path3853"
       inkscape:connector-curvature="0" />
    <path
       style="fill:none;stroke:#000000;stroke-width:1px;stroke-linecap:butt;stroke-linejoin:miter;stroke-opacity:1"
       d="m 351.71577,249.9989 3.44827,109.48276"
       id="path3855"
       inkscape:connector-curvature="0" />
    <path
       style="fill:none;stroke:#000000;stroke-width:1px;stroke-linecap:butt;stroke-linejoin:miter;stroke-opacity:1"
       d="m 397.40542,250.86097 2.58621,107.75862"
       id="path3857"
       inkscape:connector-curvature="0" />
    <path
       style="fill:none;stroke:#000000;stroke-width:1px;stroke-linecap:butt;stroke-linejoin:miter;stroke-opacity:1"
       d="m 437.0606,251.72304 -0.86207,107.75862"
       id="path3859"
       inkscape:connector-curvature="0" />
    <path
       style="fill:none;stroke:#000000;stroke-width:1px;stroke-linecap:butt;stroke-linejoin:miter;stroke-opacity:1"
       d="m 471.54335,249.9989 2.58621,112.93103"
       id="path3861"
       inkscape:connector-curvature="0" />
    <path
       style="fill:none;stroke:#000000;stroke-width:1px;stroke-linecap:butt;stroke-linejoin:miter;stroke-opacity:1"
       d="m 236.78899,252.08202 c 0,0.19091 0.19091,0.57274 0,0.57274 -0.19091,0 0,-0.76365 0,-0.57274 0,0.23864 0,0.47728 0,0.71592 0,0.0477 0.0213,0.10049 0,0.14318 -0.0302,0.0604 -0.113,0.0828 -0.14318,0.14318 -0.0214,0.0427 0.0213,0.1005 0,0.14319 -0.0302,0.0604 -0.113,0.0828 -0.14318,0.14318 -0.0214,0.0427 0.0337,0.10943 0,0.14318 -0.0337,0.0337 -0.10944,-0.0337 -0.14319,0 -0.0392,0.0392 0.0388,0.49506 0,0.57273 -0.0302,0.0604 -0.11299,0.0828 -0.14318,0.14318 -0.0218,0.0436 0,0.36507 0,0.42955 0,0.0477 -0.0337,0.10944 0,0.14319 0.0337,0.0337 0.14318,-0.0477 0.14318,0 0,0.0675 -0.11299,0.0828 -0.14318,0.14318 -0.0427,0.0854 0.0427,0.20099 0,0.28636 -0.0302,0.0604 -0.113,0.0828 -0.14318,0.14319 -0.01,0.0195 -0.01,0.83954 0,0.85909 0.0302,0.0604 0.11299,0.0828 0.14318,0.14318 0.12727,0.25455 -0.0796,0.0795 -0.14318,0.14319 -0.0337,0.0338 0,0.0955 0,0.14318 0,0.0477 -0.0151,0.0979 0,0.14318 0.0337,0.10125 0.10943,0.18512 0.14318,0.28637 0.0186,0.0557 -0.0222,0.40733 0,0.42955 0.0337,0.0337 0.14318,-0.0477 0.14318,0 -0.19091,0 -0.14318,-0.0477 -0.14318,0.14318 0,0.0347 0.005,0.42494 0,0.42955 -0.0337,0.0337 -0.10943,-0.0337 -0.14318,0 -0.0337,0.0337 0,0.0955 0,0.14318 0,0.0477 -0.0213,0.10049 0,0.14318 0.0302,0.0604 0.11299,0.0828 0.14318,0.14318 0.0213,0.0427 0,0.0955 0,0.14319 0,0.28636 0,0.57273 0,0.85909 0,0.0645 0.0218,0.38598 0,0.42955 -0.0302,0.0604 -0.113,0.0828 -0.14318,0.14318 -0.0573,0.11455 0.0573,0.31501 0,0.42955 -0.0302,0.0604 -0.113,0.0828 -0.14319,0.14318 -0.0204,0.0408 0,0.68899 0,0.28637"
       id="path3863"
       inkscape:connector-curvature="0" />
    <path
       style="fill:none;stroke:#000000;stroke-width:1px;stroke-linecap:butt;stroke-linejoin:miter;stroke-opacity:1"
       d="m 236.93217,252.65476 c 0.23864,0.0955 0.48603,0.17142 0.71592,0.28636 0.59589,0.29795 -0.15307,-0.01 0.14318,0.28637 0.0337,0.0337 0.10049,-0.0214 0.14318,0 0.0604,0.0302 0.087,0.10574 0.14318,0.14318 0.0888,0.0592 0.19091,0.0955 0.28637,0.14318 0.0954,0.0477 0.18512,0.10944 0.28637,0.14318 0.0453,0.0151 0.0954,0 0.14318,0 0.0477,0.0477 0.0828,0.113 0.14318,0.14319 0.0427,0.0213 0.10943,-0.0337 0.14318,0 0.0337,0.0337 -0.0337,0.10943 0,0.14318 0.0337,0.0337 0.1005,-0.0214 0.14319,0 0.0604,0.0302 0.0828,0.113 0.14318,0.14318 0.1975,0.0987 0.12807,-0.1734 0.28636,0.14318 0.0284,0.0568 -0.0293,0.40028 0,0.42955 0.0337,0.0337 0.10944,-0.0337 0.14319,0 0.0675,0.0675 -0.0675,0.21887 0,0.28637 0.0337,0.0337 0.10943,-0.0337 0.14318,0 0.0675,0.0675 -0.0675,0.21887 0,0.28636 0.0337,0.0337 0.10943,-0.0337 0.14318,0 0.0337,0.0337 -0.0337,0.10944 0,0.14319 0.0337,0.0337 0.10944,-0.0337 0.14318,0 0.0337,0.0337 0.0477,0.14318 0,0.14318 -0.0477,0 -0.0337,-0.10944 0,-0.14318 0.0222,-0.0222 0.37384,0.0186 0.42955,0 0.10125,-0.0337 0.18512,-0.10944 0.28637,-0.14319 0.0453,-0.0151 0.10049,0.0213 0.14318,0 0.0604,-0.0302 0.0828,-0.11299 0.14318,-0.14318 0.11455,-0.0573 0.315,0.0573 0.42955,0 0.12074,-0.0604 0.16562,-0.22599 0.28637,-0.28636 0.13499,-0.0675 0.28636,-0.0955 0.42954,-0.14319 0.14319,-0.0954 0.28199,-0.19783 0.42955,-0.28636 0.0915,-0.0549 0.18512,-0.10944 0.28637,-0.14319 0.0453,-0.0151 0.10943,0.0337 0.14318,0 0.0337,-0.0337 -0.0337,-0.10943 0,-0.14318 0.0337,-0.0337 0.10049,0.0213 0.14318,0 0.0604,-0.0302 0.087,-0.10574 0.14319,-0.14318 0.17759,-0.1184 0.38182,-0.19091 0.57273,-0.28637 0.0954,-0.0477 0.18512,-0.10943 0.28636,-0.14318 0.0453,-0.0151 0.10944,0.0337 0.14318,0 0.0337,-0.0337 -0.0337,-0.10943 0,-0.14318 0.0345,-0.0345 0.53828,0.0344 0.57273,0 0.0337,-0.0337 -0.0337,-0.10944 0,-0.14318 0.0337,-0.0337 0.1005,0.0213 0.14319,0 0.0604,-0.0302 0.0828,-0.113 0.14318,-0.14319 0.0854,-0.0427 0.21887,0.0675 0.28637,0 0.0337,-0.0337 -0.0337,-0.10943 0,-0.14318 0.0337,-0.0337 0.0954,0 0.14318,0 0.0477,0 0.0954,0 0.14318,0 0.38182,0 -0.0477,0.0477 0.14318,-0.14318 0.0337,-0.0337 0.14319,-0.0477 0.14319,0 0,0.0477 -0.10944,-0.0337 -0.14319,0 -0.0675,0.0675 0.0427,0.20099 0,0.28636 -0.0302,0.0604 -0.11299,0.0828 -0.14318,0.14319 -0.0474,0.0949 0.04,0.45272 0,0.57273 -0.0675,0.20249 -0.2346,0.36566 -0.28636,0.57273 -0.0232,0.0926 0.0187,0.19276 0,0.28636 -0.0296,0.148 -0.11359,0.28155 -0.14319,0.42955 -0.0187,0.0936 0.0157,0.19221 0,0.28637 -0.0324,0.1941 -0.11877,0.37746 -0.14318,0.57273 -0.0474,0.37887 0.0628,0.76883 0,1.14546 -0.0175,0.10527 -0.1173,0.18283 -0.14318,0.28636 -0.0463,0.18521 0.0604,0.39162 0,0.57273 -0.0214,0.064 -0.113,0.0828 -0.14319,0.14319 -0.0675,0.13499 -0.0871,0.28941 -0.14318,0.42954 -0.0396,0.0991 -0.0954,0.19091 -0.14318,0.28637 -0.0477,0.14318 -0.0871,0.28941 -0.14318,0.42955 -0.0396,0.0991 -0.10944,0.18512 -0.14319,0.28636 -0.0151,0.0453 0.0214,0.1005 0,0.14319 -0.0302,0.0604 -0.11299,0.0828 -0.14318,0.14318 -0.0147,0.0294 -0.0142,0.67339 0,0.71591 0.0338,0.10125 0.10944,0.18512 0.14318,0.28637 0.0285,0.0854 0,0.72037 0,0.85909"
       id="path3865"
       inkscape:connector-curvature="0" />
    <path
       style="fill:none;stroke:#000000;stroke-width:1px;stroke-linecap:butt;stroke-linejoin:miter;stroke-opacity:1"
       d="m 253.68454,253.37067 c -0.23863,0 -0.47727,0 -0.71591,0 -0.0477,0 -0.10049,-0.0213 -0.14318,0 -0.12074,0.0604 -0.16562,0.22599 -0.28637,0.28636 -0.0427,0.0213 -0.10049,-0.0213 -0.14318,0 -0.0382,0.0191 -0.24819,0.26728 -0.28636,0.28637 -0.0427,0.0213 -0.10944,-0.0337 -0.14319,0 -0.0675,0.0675 0.0675,0.21887 0,0.28636 -0.0337,0.0337 -0.10943,-0.0337 -0.14318,0 -0.0337,0.0337 0.0337,0.10944 0,0.14319 -0.0337,0.0338 -0.10943,-0.0337 -0.14318,0 -0.0337,0.0338 0.0213,0.10049 0,0.14318 -0.0302,0.0604 -0.113,0.0828 -0.14319,0.14318 -0.0213,0.0427 0.0151,0.0979 0,0.14319 -0.0337,0.10124 -0.10354,0.18727 -0.14318,0.28636 -0.0561,0.14013 -0.0757,0.29455 -0.14318,0.42955 -0.0302,0.0604 -0.113,0.0828 -0.14318,0.14318 -0.0427,0.0854 0.0675,0.21887 0,0.28637 -0.0337,0.0337 -0.10944,-0.0337 -0.14319,0 -0.0337,0.0337 0.0151,0.0979 0,0.14318 -0.0337,0.10124 -0.0955,0.19091 -0.14318,0.28636 -0.0954,0.19091 -0.21142,0.37288 -0.28636,0.57274 -0.0691,0.18425 -0.081,0.38604 -0.14319,0.57273 -0.0337,0.10124 -0.10943,0.18512 -0.14318,0.28636 -0.0151,0.0453 0.0213,0.10049 0,0.14318 -0.0302,0.0604 -0.113,0.0828 -0.14318,0.14319 -0.0213,0.0427 0,0.0955 0,0.14318 0,0.0477 0,0.0954 0,0.14318 0,0.28637 0,0.57273 0,0.8591 0,0.14318 0,0.28636 0,0.42955 0,0.0954 -0.0302,0.1958 0,0.28636 0.0213,0.064 0.12184,0.0791 0.14318,0.14318 0.0302,0.0906 -0.0427,0.20099 0,0.28637 0.0213,0.0427 0.10943,-0.0337 0.14318,0 0.0337,0.0337 -0.0337,0.10943 0,0.14318 0.0337,0.0337 0.10944,-0.0337 0.14319,0 0.0337,0.0337 -0.0337,0.10944 0,0.14318 0.0337,0.0337 0.0979,-0.0151 0.14318,0 0.10124,0.0337 0.19757,0.084 0.28636,0.14319 0.0562,0.0374 0.0828,0.11299 0.14319,0.14318 0.0427,0.0213 0.0979,-0.0151 0.14318,0 0.10124,0.0337 0.18512,0.10943 0.28636,0.14318 0.0453,0.0151 0.1005,-0.0213 0.14319,0 0.0604,0.0302 0.0828,0.113 0.14318,0.14318 0.0435,0.0218 0.47386,0 0.57273,0 0.0799,0 0.65037,0.0218 0.71591,0 0.064,-0.0213 0.0828,-0.11299 0.14319,-0.14318 0.0427,-0.0213 0.0979,0.0151 0.14318,0 0.12641,-0.0421 0.74579,-0.35401 0.85909,-0.42955 0.0562,-0.0374 0.0828,-0.11299 0.14319,-0.14318 0.0427,-0.0213 0.10049,0.0213 0.14318,0 0.0604,-0.0302 0.0955,-0.0954 0.14318,-0.14318 0.0477,-0.0477 0.10575,-0.087 0.14319,-0.14318 0.0592,-0.0888 0.0883,-0.19486 0.14318,-0.28637 0.0885,-0.14756 0.18311,-0.29188 0.28636,-0.42955 0.0405,-0.054 0.113,-0.0828 0.14319,-0.14318 0.0213,-0.0427 -0.0214,-0.10049 0,-0.14318 0.0302,-0.0604 0.11299,-0.0828 0.14318,-0.14319 0.0427,-0.0854 -0.0302,-0.1958 0,-0.28636 0.0337,-0.10125 0.1173,-0.18283 0.14318,-0.28637 0.0231,-0.0926 0,-0.19091 0,-0.28636 0,-0.0955 0,-0.19091 0,-0.28637 0,-0.38182 0,-0.76364 0,-1.14546 0,-0.23864 0,-0.47727 0,-0.71591 0,-0.0941 0.0269,-0.34877 0,-0.42955 -0.0337,-0.10124 -0.10355,-0.18728 -0.14318,-0.28636 -0.11642,-0.29106 -0.11847,-0.46408 -0.28637,-0.71592 -0.0374,-0.0562 -0.10574,-0.087 -0.14318,-0.14318 -0.0592,-0.0888 -0.10943,-0.18512 -0.14318,-0.28637 -0.0151,-0.0453 0.0337,-0.10943 0,-0.14318 -0.0337,-0.0337 -0.10944,0.0337 -0.14318,0 -0.0337,-0.0337 0.0337,-0.10943 0,-0.14318 -0.0337,-0.0337 -0.10944,0.0337 -0.14319,0 -0.0337,-0.0337 0.0337,-0.10943 0,-0.14318 -0.0675,-0.0675 -0.20098,0.0427 -0.28636,0 -0.24892,-0.12446 -0.47728,-0.28637 -0.71592,-0.42955 z"
       id="path3867"
       inkscape:connector-curvature="0" />
    <path
       style="fill:none;stroke:#000000;stroke-width:1px;stroke-linecap:butt;stroke-linejoin:miter;stroke-opacity:1"
       d="m 278.16878,254.22976 c 0.24915,0.6171 0.0895,1.21746 0.14318,1.86138 0.0241,0.28931 0.11112,0.57056 0.14318,0.8591 0.0158,0.1423 0,0.28636 0,0.42954 0,0.23864 0,0.47728 0,0.71592 0,0.23863 0.0392,0.48052 0,0.71591 -0.0248,0.14887 -0.11837,0.28067 -0.14318,0.42955 -0.0235,0.14123 0.0281,0.28914 0,0.42955 -0.0209,0.10465 -0.12564,0.18109 -0.14318,0.28636 -0.0314,0.18831 0.0211,0.38299 0,0.57273 -0.0387,0.34805 -0.21802,1.25771 -0.42955,1.57501 -0.0374,0.0562 -0.113,0.0828 -0.14318,0.14318 -0.0213,0.0427 0.0477,0.14319 0,0.14319 -0.0477,0 0,-0.0955 0,-0.14319"
       id="path3869"
       inkscape:connector-curvature="0" />
    <path
       style="fill:none;stroke:#000000;stroke-width:1px;stroke-linecap:butt;stroke-linejoin:miter;stroke-opacity:1"
       d="m 275.01876,253.80022 c 0.71164,-0.17791 0.37595,-0.14319 1.00228,-0.14319 0.14318,0 0.28914,0.0281 0.42955,0 0.10465,-0.0209 0.18512,-0.10943 0.28636,-0.14318 0.0899,-0.03 0.45747,0 0.57273,0 0.47728,0 0.95455,0 1.43183,0 0.23864,0 0.47728,0 0.71591,0 0.0477,0 0.0955,0 0.14319,0 0.0477,0 0.10049,0.0213 0.14318,0 0.0604,-0.0302 0.0828,-0.113 0.14318,-0.14318 0.0427,-0.0213 0.0955,0 0.14318,0 0.0955,0 0.19091,0 0.28637,0 0.19091,0 0.38182,0 0.57273,0 0.0477,0 0.0954,0 0.14318,0 0.0477,0 0.10944,0.0337 0.14318,0 0.0337,-0.0337 -0.0477,-0.14318 0,-0.14318 0.0675,0 0.0828,0.11299 0.14319,0.14318 0.0427,0.0213 0.0955,0 0.14318,0 0.0955,0 0.19091,0 0.28637,0 0.0477,0 0.0955,0 0.14318,0 0.0477,0 0.10943,0.0337 0.14318,0 0.0337,-0.0337 -0.0477,-0.14318 0,-0.14318 0.0477,0 0,0.0954 0,0.14318"
       id="path3871"
       inkscape:connector-curvature="0" />
    <path
       style="fill:none;stroke:#000000;stroke-width:1px;stroke-linecap:butt;stroke-linejoin:miter;stroke-opacity:1"
       d="m 284.75518,254.22976 c 0.11344,0.25352 -0.0579,0.71265 0,1.00228 0.18846,0.94231 0.14318,-0.079 0.14318,0.8591 0,0.0477 0,0.0954 0,0.14318 0,0.0477 0.0213,0.1005 0,0.14318 -0.0302,0.0604 -0.11299,0.0828 -0.14318,0.14319 -0.0213,0.0427 0.0151,0.0979 0,0.14318 -0.0337,0.10125 -0.1173,0.18283 -0.14318,0.28637 -0.0231,0.0926 0.0302,0.1958 0,0.28636 -0.0213,0.064 -0.12184,0.0792 -0.14318,0.14318 -0.0246,0.0738 0,0.85082 0,1.00228 0,0.034 -0.0161,0.54064 0,0.57273 0.0302,0.0604 0.11299,0.0828 0.14318,0.14318 0.0213,0.0427 -0.0213,0.1005 0,0.14319 0.0302,0.0604 0.113,0.0828 0.14318,0.14318 0.0213,0.0427 -0.0213,0.10049 0,0.14318 0.0296,0.0592 0.36886,0.38909 0.42955,0.42955 0.0888,0.0592 0.18512,0.10944 0.28636,0.14318 0.0453,0.0151 0.10944,-0.0337 0.14319,0 0.0338,0.0337 -0.0337,0.10944 0,0.14319 0.0338,0.0337 0.10943,-0.0337 0.14318,0 0.0337,0.0337 -0.0337,0.10943 0,0.14318 0.0337,0.0337 0.0979,-0.0151 0.14318,0 0.10125,0.0337 0.19757,0.084 0.28637,0.14318 0.0562,0.0374 0.0791,0.12184 0.14318,0.14318 0.0906,0.0302 0.19091,0 0.28637,0 0.0954,0.0477 0.18512,0.10944 0.28636,0.14319 0.0906,0.0302 0.20099,-0.0427 0.28637,0 0.237,0.1185 0.0385,0.27354 0.42954,0.14318 0.064,-0.0213 0.0828,-0.113 0.14319,-0.14318 0.0427,-0.0214 0.10049,0.0213 0.14318,0 0.65529,-0.32765 -0.60758,0.0593 0.42955,-0.28637 0.0453,-0.0151 0.10049,0.0213 0.14318,0 0.12074,-0.0604 0.17404,-0.21148 0.28637,-0.28636 0.66818,-0.44546 -0.0477,0.20682 0.42954,-0.42955 0.081,-0.108 0.23623,-0.16103 0.28637,-0.28637 0.0532,-0.13294 -0.0281,-0.28914 0,-0.42955 0.0209,-0.10464 0.10943,-0.18511 0.14318,-0.28636 0.0151,-0.0453 0,-0.0955 0,-0.14318 0,-0.0477 0.0213,-0.1005 0,-0.14319 -0.0302,-0.0604 -0.12184,-0.0792 -0.14318,-0.14318 -0.0244,-0.0733 0,-0.75673 0,-0.85909 0,-0.12624 -0.0305,-0.30755 0,-0.42955 0.0366,-0.14642 0.11837,-0.28068 0.14318,-0.42955 0.0235,-0.14123 -0.0281,-0.28915 0,-0.42955 0.0209,-0.10465 0.1173,-0.18283 0.14318,-0.28636 0.10864,-0.43454 -0.009,-0.16182 -0.14318,-0.42955 -0.0213,-0.0427 0,-0.0955 0,-0.14318 0,-0.0477 0,-0.0955 0,-0.14319 0,-0.23863 0,-0.47727 0,-0.71591"
       id="path3873"
       inkscape:connector-curvature="0" />
    <path
       style="fill:none;stroke:#000000;stroke-width:1px;stroke-linecap:butt;stroke-linejoin:miter;stroke-opacity:1"
       d="m 300.36209,254.08658 c 0,-0.0478 0.0477,-0.14318 0,-0.14318 -0.0477,0 0.0337,0.10948 0,0.14318 -0.0392,0.0392 -0.61523,-0.0336 -0.71591,0 -0.10125,0.0337 -0.18512,0.10948 -0.28637,0.14318 -0.0808,0.0269 -0.33545,0 -0.42955,0 -0.14318,0 -0.29064,0.0347 -0.42954,0 -0.10354,-0.0259 -0.18283,-0.11728 -0.28637,-0.14318 -0.0926,-0.0231 -0.19376,0.0231 -0.28636,0 -0.10354,-0.0259 -0.18512,-0.10948 -0.28637,-0.14318 -0.12886,-0.043 -0.30068,0.0429 -0.42955,0 -0.10124,-0.0337 -0.18283,-0.11728 -0.28636,-0.14318 -0.0926,-0.0231 -0.19087,0 -0.28637,0 -0.14318,0 -0.28636,0 -0.42955,0 -0.38171,0 -0.76375,0 -1.14546,0 -0.11957,0 -0.95418,0 -1.00228,0 0.14318,0.42955 0.34611,0.84361 0.42955,1.28864 0.1088,0.58023 -0.0396,1.29175 -0.14318,1.86138 -0.0871,0.47887 -0.18078,0.95668 -0.28637,1.43182 -0.0559,0.25151 -0.17597,0.74471 -0.28636,1.00228 -0.0841,0.19619 -0.21142,0.37288 -0.28637,0.57273 -0.0691,0.18426 -0.0891,0.38352 -0.14318,0.57273 -0.0415,0.14512 -0.11358,0.28155 -0.14318,0.42955 -0.0187,0.0936 0.0302,0.19581 0,0.28636 -0.0213,0.064 -0.113,0.0828 -0.14318,0.14319 -0.0284,0.0568 0.0293,0.40027 0,0.42955 -0.0337,0.0337 -0.10944,-0.0337 -0.14319,0 -0.0337,0.0337 0,0.0954 0,0.14318 0,0.0477 -0.0337,0.10943 0,0.14318 0.0337,0.0337 0.10944,0.0337 0.14319,0 0.0337,-0.0337 -0.0337,-0.10943 0,-0.14318 0.0337,-0.0337 0.0954,0 0.14318,0 0.0477,0 0.0955,0 0.14318,0 0.28637,0 0.57273,0 0.8591,0 0.034,0 0.54064,0.016 0.57273,0 0.0604,-0.0302 0.0828,-0.113 0.14318,-0.14318 0.11313,-0.0566 0.52729,0.13669 0.57273,0.14318 0.18899,0.027 0.38182,0 0.57273,0 0.38182,0 0.76364,0 1.14546,0 0.0825,0 0.66373,-0.0261 0.71592,0 0.0604,0.0302 0.0828,0.113 0.14318,0.14318 0.0427,0.0213 0.0954,0 0.14318,0 0.0955,0 0.19091,0 0.28637,0 0.19091,0 0.38182,0 0.57273,0 0.0477,0 0.0954,0 0.14318,0 0.0477,0 0.10943,0.0337 0.14318,0 0.0337,-0.0337 -0.0477,-0.14318 0,-0.14318 0.0477,0 0,0.0955 0,0.14318"
       id="path3875"
       inkscape:connector-curvature="0" />
    <path
       style="fill:none;stroke:#000000;stroke-width:1px;stroke-linecap:butt;stroke-linejoin:miter;stroke-opacity:1"
       d="m 294.06205,257.52297 c 0.47728,0 0.95456,0 1.43183,0 0.0955,0 0.19091,0 0.28637,0 0.0477,0 0.0979,0.0151 0.14318,0 0.10124,-0.0337 0.18171,-0.12226 0.28636,-0.14319 0.14041,-0.0281 0.28637,0 0.42955,0 0.14318,0 0.28637,0 0.42955,0 0.0955,0 0.19376,-0.0231 0.28637,0 0.10353,0.0259 0.18512,0.10944 0.28636,0.14319 0.0453,0.0151 0.0955,0 0.14318,0 0.0477,0 0.10944,0.0337 0.14319,0 0.0385,-0.0385 0.009,-0.29556 -0.14319,-0.14319 -0.0337,0.0337 0.0477,0.14319 0,0.14319 -0.0477,0 0,-0.0955 0,-0.14319"
       id="path3877"
       inkscape:connector-curvature="0" />
    <path
       style="fill:none;stroke:#000000;stroke-width:1px;stroke-linecap:butt;stroke-linejoin:miter;stroke-opacity:1"
       d="m 314.25081,253.37067 c 0.49366,1.23416 0.12127,0.20967 0.42955,1.28864 0.0415,0.14512 0.11358,0.28155 0.14318,0.42955 0.0187,0.0936 -0.0231,0.19376 0,0.28637 0.0259,0.10353 0.10943,0.18512 0.14318,0.28636 0.0336,0.10081 0,0.86402 0,1.00228 0,0.23864 -0.0468,0.48191 0,0.71591 0.0742,0.37077 0.13047,0.1957 0.28637,0.42955 0.14045,0.21068 0.20875,0.48307 0.28636,0.71591 0.0477,0.14319 0.11359,0.28156 0.14319,0.42955 0.0468,0.23401 -0.0392,0.48052 0,0.71592 0.0248,0.14887 0.10657,0.28312 0.14318,0.42954 0.0333,0.13304 -0.0427,0.6306 0,0.71592 0.0302,0.0604 0.113,0.0828 0.14318,0.14318 0.0213,0.0427 -0.0213,0.10049 0,0.14318 0.17693,0.35386 0.14318,-0.0494 0.14318,0.28637 0,0.0477 -0.0477,0.14318 0,0.14318 0.23744,0 0.1004,-0.20079 0.14319,-0.28637 0.79,-1.58 -0.41934,1.51984 0.71591,-1.43182 0.21619,-0.5621 0.34579,-0.98869 0.42955,-1.57501 0.004,-0.0301 -0.0257,-0.52139 0,-0.57273 0.0302,-0.0604 0.11299,-0.0828 0.14318,-0.14318 0.0213,-0.0427 -0.009,-0.0964 0,-0.14319 0.0386,-0.19296 0.081,-0.38604 0.14318,-0.57273 0.7,-2.1 0.14485,-0.3857 0.71592,-1.71819 0.53079,-1.23852 -0.17454,0.20588 0.28636,-0.71591 0.0477,-0.0955 0.10944,-0.18512 0.14318,-0.28637 0.0302,-0.0906 -0.0427,-0.20099 0,-0.28636 0.0859,-0.17182 0.34364,-0.25773 0.42955,-0.42955 0.0427,-0.0854 -0.0955,-0.28637 0,-0.28637 0.0477,0 0.0337,0.10944 0,0.14319 -0.0636,0.0636 -0.27045,-0.11137 -0.14318,0.14318 0.0302,0.0604 0.113,0.0828 0.14318,0.14318 0.0213,0.0427 0,0.0955 0,0.14318 0.0477,0.0477 0.113,0.0828 0.14318,0.14319 0.0213,0.0427 -0.0213,0.10049 0,0.14318 0.0302,0.0604 0.12184,0.0791 0.14319,0.14318 0.0195,0.0586 0,0.97628 0,1.00228 0,0.0477 -0.0151,0.0979 0,0.14318 0.0337,0.10125 0.10943,0.18512 0.14318,0.28637 0.0151,0.0453 -0.0213,0.10049 0,0.14318 0.0302,0.0604 0.113,0.0828 0.14318,0.14318 0.0213,0.0427 -0.0213,0.1005 0,0.14319 0.0302,0.0604 0.113,0.0828 0.14319,0.14318 0.0213,0.0427 -0.0151,0.0979 0,0.14318 0.0421,0.12641 0.35401,0.7458 0.42954,0.8591 0.0374,0.0562 0.10575,0.087 0.14319,0.14318 0.0592,0.0888 0.084,0.19757 0.14318,0.28637 0.0374,0.0562 0.113,0.0828 0.14318,0.14318 0.0394,0.0788 -0.0373,0.74716 0,0.85909 0.0213,0.064 0.10574,0.087 0.14318,0.14319 0.0592,0.0888 0.10355,0.18727 0.14319,0.28636 0.1121,0.28027 0.17426,0.57883 0.28636,0.8591 0.0396,0.0991 0.10944,0.18512 0.14318,0.28636 0.0302,0.0906 -0.0675,0.21887 0,0.28637 0.0337,0.0337 0.14319,-0.0477 0.14319,0 0,0.0477 -0.10944,-0.0337 -0.14319,0 -0.0337,0.0337 0,0.0954 0,0.14318 0,0.0477 -0.0151,0.0979 0,0.14318 0.0337,0.10125 0.12226,0.18172 0.14319,0.28637 0,0.81428 -0.064,0.0943 0.14318,0.71591 0.0151,0.0453 -0.0337,0.10944 0,0.14319 0.0337,0.0337 0.10943,0.0337 0.14318,0 0.0222,-0.0222 -0.0186,-0.37384 0,-0.42955 0.0337,-0.10125 0.0955,-0.19091 0.14319,-0.28637 0.0477,-0.19091 0.0954,-0.38182 0.14318,-0.57273 0.20843,-0.83373 0.45154,-1.729 0.57273,-2.57729 0.027,-0.18899 -0.0237,-0.38329 0,-0.57273 0.061,-0.48793 0.36133,-1.2954 0.57273,-1.71819 0.077,-0.15392 0.23195,-0.26629 0.28636,-0.42955 0.0194,-0.0582 -0.0327,-0.7936 0,-0.85909 0.0302,-0.0604 0.10575,-0.087 0.14319,-0.14319 0.0592,-0.0888 0.0954,-0.19091 0.14318,-0.28636 0.0477,-0.0955 0.10943,-0.18512 0.14318,-0.28637 0.0374,-0.11203 -0.0599,-0.28636 0,-0.28636 0.0477,0 0,0.0955 0,0.14318"
       id="path3879"
       inkscape:connector-curvature="0" />
    <path
       style="fill:none;stroke:#000000;stroke-width:1px;stroke-linecap:butt;stroke-linejoin:miter;stroke-opacity:1"
       d="m 333.00774,253.80022 c 0.0477,0 0.14318,0.0477 0.14318,0 0,-0.0477 -0.0955,0 -0.14318,0 -0.0954,0 -0.19097,0 -0.28637,0 -0.38182,0 0.0477,0.0477 -0.14318,-0.14319 -0.0338,-0.0337 -0.0955,0 -0.14318,0 -0.16633,0 -0.58612,0.0324 -0.71592,0 -0.10353,-0.0259 -0.18512,-0.10948 -0.28636,-0.14318 -0.0314,-0.0105 -0.55143,-0.0106 -0.57273,0 -0.0604,0.0302 -0.0828,0.11298 -0.14319,0.14318 -0.003,0.002 -0.95777,0.0148 -1.00227,0 -0.0641,-0.0213 -0.0828,-0.11298 -0.14319,-0.14318 -0.0847,-0.0423 -0.73292,0.0315 -0.85909,0 -0.10354,-0.0259 -0.18283,-0.11728 -0.28637,-0.14318 -0.32412,-0.081 -0.69312,0.20257 -1.00228,0 -0.22551,0.60135 -0.52234,1.20631 -0.57273,1.86137 -0.0293,0.3807 0.0254,0.76449 0,1.14546 -0.0224,0.33674 -0.11515,0.66596 -0.14318,1.00228 -0.0357,0.42807 0,0.8591 0,1.28865 0,0.28636 0,0.57273 0,0.85909 0,0.034 0.0161,0.54064 0,0.57273 -0.0302,0.0604 -0.113,0.0828 -0.14318,0.14319 -0.0213,0.0427 0.0213,0.10049 0,0.14318 -0.0302,0.0604 -0.0955,0.0954 -0.14319,0.14318 -0.0477,0.0477 -0.0954,0.0955 -0.14318,0.14318 -0.0477,0.0477 -0.0955,0.0955 -0.14318,0.14319 -0.0477,0.0477 -0.12184,0.0791 -0.14318,0.14318 -0.0302,0.0906 0.0302,0.19581 0,0.28636 -0.0213,0.064 -0.113,0.0828 -0.14319,0.14319 -0.0427,0.0854 0.0675,0.21887 0,0.28636 -0.0337,0.0337 -0.14318,0.0477 -0.14318,0 0,-0.0477 0.0955,0 0.14318,0 0.0477,0 0.0955,0 0.14319,0 0.33409,0 0.66818,0 1.00228,0 0.47727,0 0.95455,0 1.43182,0 0.16633,0 0.58611,-0.0324 0.71592,0 0.10353,0.0259 0.18512,0.10944 0.28636,0.14319 0.0935,0.0311 0.68791,0 0.8591,0 0.57273,0 1.14546,0 1.71819,0"
       id="path3881"
       inkscape:connector-curvature="0" />
    <path
       style="fill:none;stroke:#000000;stroke-width:1px;stroke-linecap:butt;stroke-linejoin:miter;stroke-opacity:1"
       d="m 326.56452,257.52297 c 0.42955,0 0.85909,0 1.28864,0 0.0955,0 0.19091,0 0.28637,0 0.0477,0 0.10049,-0.0214 0.14318,0 0.0604,0.0302 0.0828,0.11299 0.14318,0.14318 0.0854,0.0427 0.20099,-0.0427 0.28637,0 0.0604,0.0302 0.0792,0.12184 0.14318,0.14318 0.0815,0.0272 0.58106,0 0.71591,0 0.0645,0 0.38598,0.0218 0.42955,0 0.0604,-0.0302 0.0828,-0.113 0.14318,-0.14318 0.0518,-0.0259 0.61633,0 0.71592,0"
       id="path3883"
       inkscape:connector-curvature="0" />
    <path
       style="fill:none;stroke:#000000;stroke-width:1px;stroke-linecap:butt;stroke-linejoin:miter;stroke-opacity:1"
       d="m 336.15776,253.80022 c -0.0477,0.19091 -0.11084,0.37862 -0.14319,0.57273 -0.0157,0.0942 0,0.19091 0,0.28636 0,0.14319 0,0.28637 0,0.42955 0,0.57273 0,1.14546 0,1.71819 0,0.23864 0.0392,0.48052 0,0.71592 -0.0248,0.14887 -0.11837,0.28067 -0.14318,0.42954 -0.0235,0.14124 0.0281,0.28915 0,0.42955 -0.0209,0.10465 -0.12225,0.18172 -0.14318,0.28637 0,1.09229 0.064,-0.11295 -0.14319,0.71591 -10e-4,0.005 7.7e-4,0.42879 0,0.42955 -0.0337,0.0337 -0.10943,-0.0337 -0.14318,0 -0.0337,0.0337 0,0.0955 0,0.14318 0,0.28637 0,0.57273 0,0.8591 0,0.0477 0,0.0954 0,0.14318 0,0.0477 -0.0337,0.10943 0,0.14318 0.19091,0.19091 0.14318,-0.23864 0.14318,0.14318"
       id="path3885"
       inkscape:connector-curvature="0" />
    <path
       style="fill:none;stroke:#000000;stroke-width:1px;stroke-linecap:butt;stroke-linejoin:miter;stroke-opacity:1"
       d="m 336.01457,253.22749 c 0.28637,0 0.57494,0.0355 0.8591,0 0.1059,-0.0132 0.18512,-0.10944 0.28636,-0.14319 0.0899,-0.0299 0.45747,0 0.57273,0 0.12906,0 0.6258,-0.03 0.71592,0 0.10124,0.0337 0.18171,0.12226 0.28636,0.14319 0.14041,0.0281 0.28637,0 0.42955,0 0.0477,0 0.1005,-0.0214 0.14318,0 0.0604,0.0302 0.0828,0.11299 0.14319,0.14318 0.0854,0.0427 0.20098,-0.0427 0.28636,0 0.0604,0.0302 0.0828,0.113 0.14318,0.14318 0.0427,0.0213 0.0955,0 0.14319,0 0.0477,0.0477 0.0828,0.113 0.14318,0.14318 0.0427,0.0213 0.0955,0 0.14318,0 0.0955,0.0477 0.19757,0.084 0.28637,0.14319 0.21897,0.14598 0.11248,0.1977 0.28636,0.42954 0.081,0.108 0.19091,0.19091 0.28637,0.28637 0.0477,0.0477 0.12184,0.0791 0.14318,0.14318 0.0302,0.0906 -0.0427,0.20099 0,0.28637 0.0213,0.0427 0.10944,-0.0337 0.14318,0 0.0675,0.0675 -0.0427,0.20099 0,0.28636 0.0302,0.0604 0.113,0.0828 0.14319,0.14319 0.0213,0.0427 -0.0151,0.0979 0,0.14318 0.0338,0.10124 0.1173,0.18283 0.14318,0.28636 0.0463,0.18521 -0.0374,0.38553 0,0.57273 0.0296,0.148 0.11358,0.28156 0.14318,0.42955 0.0374,0.18721 0,0.38182 0,0.57273 0,0.0477 0,0.0955 0,0.14319 0,0.0477 0.0214,0.10049 0,0.14318 -0.0604,0.12074 -0.21148,0.17404 -0.28636,0.28636 -0.0755,0.1133 -0.38742,0.73269 -0.42955,0.8591 -0.0151,0.0453 0,0.0954 0,0.14318 -0.0477,0.0477 -0.113,0.0828 -0.14318,0.14318 -0.0427,0.0854 0.0675,0.21887 0,0.28637 -0.0337,0.0337 -0.10944,-0.0337 -0.14319,0 -0.0337,0.0337 0.0213,0.10049 0,0.14318 -0.10964,0.2193 -0.25515,0.11197 -0.42954,0.28637 -0.0755,0.0755 -0.084,0.19757 -0.14319,0.28636 -0.0374,0.0562 -0.0955,0.0955 -0.14318,0.14319 -0.0477,0.0477 -0.0828,0.11299 -0.14318,0.14318 -0.0854,0.0427 -0.20099,-0.0427 -0.28637,0 -0.0604,0.0302 -0.0828,0.113 -0.14318,0.14318 -0.0427,0.0213 -0.10049,-0.0213 -0.14318,0 -0.0604,0.0302 -0.0828,0.113 -0.14319,0.14318 -0.0427,0.0213 -0.10049,-0.0213 -0.14318,0 -0.0604,0.0302 -0.087,0.10575 -0.14318,0.14319 -0.0888,0.0592 -0.19757,0.084 -0.28637,0.14318 -0.12355,0.0824 -0.31771,0.31771 -0.42954,0.42955 -0.0477,0.0477 -0.0828,0.11299 -0.14319,0.14318 -0.0427,0.0213 -0.0979,-0.0151 -0.14318,0 -0.10125,0.0337 -0.18512,0.10943 -0.28637,0.14318 -0.0453,0.0151 -0.10943,-0.0337 -0.14318,0 -0.0337,0.0337 0.0337,0.10944 0,0.14319 -0.0337,0.0337 -0.0954,0 -0.14318,0 -0.0477,0 -0.10943,0.0337 -0.14318,0 -0.0337,-0.0337 0.0337,-0.10944 0,-0.14319 -0.0337,-0.0337 -0.0979,0.0151 -0.14319,0 -0.20249,-0.0675 -0.38182,-0.19091 -0.57273,-0.28636 -0.0954,-0.0477 -0.18283,-0.1173 -0.28636,-0.14319 -0.0926,-0.0231 -0.19581,0.0302 -0.28637,0 -0.064,-0.0213 -0.0828,-0.11299 -0.14318,-0.14318 -0.0436,-0.0218 -0.36506,0 -0.42955,0 -0.0954,0 -0.19094,0 -0.28636,0 -0.0477,0 -0.14319,0.0477 -0.14319,0 0,-0.0477 0.0955,0 0.14319,0 0.0477,0 0.0955,0 0.14318,0"
       id="path3887"
       inkscape:connector-curvature="0" />
    <path
       style="fill:none;stroke:#000000;stroke-width:1px;stroke-linecap:butt;stroke-linejoin:miter;stroke-opacity:1"
       d="m 358.9238,254.51613 c 0,0.33409 0,0.66819 0,1.00228 0,0.0477 0,0.0955 0,0.14318 0,0.0477 -0.0213,0.10049 0,0.14318 0.0302,0.0604 0.12184,0.0792 0.14318,0.14319 0.0259,0.0777 -0.005,1.10669 0,1.14546 0.0244,0.19526 0.11535,0.37792 0.14318,0.57273 0.065,0.45509 -0.0824,0.65937 -0.14318,1.14546 -0.0178,0.14208 0,0.28636 0,0.42955 0,0.23864 0,0.47727 0,0.71591 0,0.1699 -0.0278,1.0065 0,1.14546 0.0209,0.10465 0.12225,0.18172 0.14318,0.28637 0.0281,0.1404 0,0.28636 0,0.42955 0,0.0954 0.0231,0.19376 0,0.28636 -0.0259,0.10354 -0.1173,0.18283 -0.14318,0.28637 0,0.6518 0.0675,0.008 -0.14318,0.42954 -0.0213,0.0427 0.0213,0.1005 0,0.14319 -0.0302,0.0604 -0.113,0.0828 -0.14318,0.14318 -0.0214,0.0427 0.0477,0.14318 0,0.14318 -0.0477,0 0,-0.0955 0,-0.14318"
       id="path3889"
       inkscape:connector-curvature="0" />
    <path
       style="fill:none;stroke:#000000;stroke-width:1px;stroke-linecap:butt;stroke-linejoin:miter;stroke-opacity:1"
       d="m 354.7715,253.9434 c 0.525,0 1.05001,0 1.57501,0 0.19091,0 0.38182,0 0.57273,0 0.14318,0 0.28915,0.0281 0.42955,0 0.10465,-0.0209 0.18171,-0.12225 0.28636,-0.14318 0.13897,-0.0278 0.97557,0 1.14547,0 0.76364,0 1.52728,0 2.29092,0 0.38182,0 0.76364,0 1.14546,0 0.0526,0 0.56697,-0.006 0.57273,0 0.0337,0.0337 0.0477,0.14318 0,0.14318 -0.0477,0 0,-0.0955 0,-0.14318"
       id="path3891"
       inkscape:connector-curvature="0" />
    <path
       style="fill:none;stroke:#000000;stroke-width:1px;stroke-linecap:butt;stroke-linejoin:miter;stroke-opacity:1"
       d="m 365.79657,254.65931 c 0.22464,0.35958 -0.0749,0.77106 0,1.14546 0.0296,0.148 0.12651,0.27955 0.14318,0.42955 0.0316,0.28462 -0.0168,0.57323 0,0.8591 0.0309,0.52626 0.11811,1.04844 0.14318,1.57501 0.0911,1.91344 -0.10023,1.00228 0,3.00683 0.17481,3.49613 0.14318,-0.41762 0.14318,2.14774 0,0.23864 0,0.47728 0,0.71592 0,0.0477 0,0.0955 0,0.14318 0,0.0477 0.0213,0.10049 0,0.14318 -0.47487,0.47488 0.0675,-0.13499 -0.14318,0.28637 -0.0302,0.0604 -0.12184,0.0791 -0.14318,0.14318 -0.0453,0.13583 0,0.28636 0,0.42955"
       id="path3893"
       inkscape:connector-curvature="0" />
    <path
       style="fill:none;stroke:#000000;stroke-width:1px;stroke-linecap:butt;stroke-linejoin:miter;stroke-opacity:1"
       d="m 366.08293,259.09797 c 0.23864,-0.0477 0.47728,-0.0955 0.71591,-0.14318 0.0955,0 0.19277,0.0187 0.28637,0 0.148,-0.0296 0.28067,-0.11837 0.42955,-0.14318 0.14123,-0.0235 0.28914,0.0281 0.42955,0 0.10465,-0.0209 0.18283,-0.1173 0.28636,-0.14318 0.11263,-0.0282 0.7102,0 0.8591,0 0.57273,0 1.14546,0 1.71819,0"
       id="path3895"
       inkscape:connector-curvature="0" />
    <path
       style="fill:none;stroke:#000000;stroke-width:1px;stroke-linecap:butt;stroke-linejoin:miter;stroke-opacity:1"
       d="m 371.52387,254.22976 c 0,0.47762 0,0.95422 0,1.43183 0,0.28637 0,0.57273 0,0.8591 0,0.28636 -0.0285,0.57415 0,0.85909 0.0196,0.19581 0.11536,0.37793 0.14318,0.57273 0.0203,0.14175 0,0.28637 0,0.42955 0,0.14318 0,0.28637 0,0.42955 0,0.0954 0,0.19091 0,0.28636 0,0.0477 0.0337,0.10944 0,0.14319 -0.0337,0.0337 -0.10943,-0.0337 -0.14318,0 -0.0337,0.0337 0,0.0954 0,0.14318 0,0.0955 0,0.19091 0,0.28637 0,0.14318 0,0.28636 0,0.42954 0,0.14319 0.0281,0.28915 0,0.42955 -0.0209,0.10465 -0.10943,0.18512 -0.14318,0.28637 -0.0302,0.0905 0,0.19091 0,0.28636 0,0.0955 -0.0302,0.19581 0,0.28637 0.0213,0.064 0.113,0.0828 0.14318,0.14318 0.0419,0.0839 -0.0264,0.6104 0,0.71591 0.0259,0.10354 0.10944,0.18512 0.14318,0.28637 0.0302,0.0906 -0.0675,0.21887 0,0.28636 0.0337,0.0337 0.14319,-0.0477 0.14319,0 0,0.0477 -0.14319,0.0477 -0.14319,0 0,-0.0477 0.14319,-0.0477 0.14319,0 0,0.0675 -0.0955,0.0955 -0.14319,0.14319"
       id="path3897"
       inkscape:connector-curvature="0" />
    <path
       style="fill:none;stroke:#000000;stroke-width:1px;stroke-linecap:butt;stroke-linejoin:miter;stroke-opacity:1"
       d="m 376.67845,254.51613 c 0,0.525 0,1.05001 0,1.57501 0,0.28636 -0.022,0.57357 0,0.8591 0.19718,2.56334 0.14318,-0.67371 0.14318,2.14773 0,1.55827 0.0755,0.0522 -0.14318,1.14547 -0.0187,0.0936 0,0.19091 0,0.28636 0,0.0477 0.0213,0.1005 0,0.14318 -0.0302,0.0604 -0.113,0.0828 -0.14318,0.14319 -0.0213,0.0427 0,0.0954 0,0.14318 0,0.32596 0.17061,0.56973 0.28636,0.8591 0.0825,0.20626 0.14246,0.52403 0.28637,0.71591 0.0145,0.0193 0.6545,0.68521 0.71591,0.71591 0.0854,0.0427 0.20099,-0.0427 0.28636,0 0.0604,0.0302 0.0828,0.113 0.14319,0.14318 0.037,0.0185 0.7576,0 0.85909,0 0.0347,0 0.42495,0.005 0.42955,0 0.0337,-0.0337 -0.0337,-0.10943 0,-0.14318 0.0337,-0.0338 0.10347,0.0265 0.14318,0 0.22465,-0.14976 0.36191,-0.40407 0.57273,-0.57273 0.26875,-0.215 0.5947,-0.3524 0.8591,-0.57273 0.15556,-0.12963 0.28637,-0.28636 0.42955,-0.42955 0.0955,-0.0955 0.20537,-0.17837 0.28636,-0.28636 0.064,-0.0854 0.0792,-0.20099 0.14319,-0.28637 0.081,-0.10799 0.20537,-0.17837 0.28636,-0.28636 0.064,-0.0854 0.0883,-0.19486 0.14318,-0.28637 0.0885,-0.14756 0.23195,-0.26629 0.28637,-0.42955 0.0453,-0.13583 -0.0235,-0.28831 0,-0.42954 0.0496,-0.29775 0.23674,-0.56135 0.28636,-0.8591 0.0235,-0.14123 0,-0.28637 0,-0.42955 0.0477,-0.14318 0.11359,-0.28155 0.14319,-0.42955 0.0227,-0.11364 -0.0356,-0.78788 0,-0.85909 0.0302,-0.0604 0.12184,-0.0792 0.14318,-0.14318 0.0395,-0.11859 -0.0455,-0.62486 0,-0.71592 0.0302,-0.0604 0.113,-0.0828 0.14318,-0.14318 0.0213,-0.0427 0,-0.0955 0,-0.14318 0,-0.0477 0.0213,-0.1005 0,-0.14319 -0.0302,-0.0604 -0.12681,-0.0777 -0.14318,-0.14318 -0.0346,-0.13841 0.0275,-0.83161 0,-0.85909 -0.0337,-0.0337 -0.10943,0.0337 -0.14318,0 -0.0337,-0.0337 -0.0337,-0.10944 0,-0.14319 0.0337,-0.0337 0.10943,0.0337 0.14318,0 0.0337,-0.0337 0,-0.0954 0,-0.14318"
       id="path3899"
       inkscape:connector-curvature="0" />
    <path
       style="fill:none;stroke:#000000;stroke-width:1px;stroke-linecap:butt;stroke-linejoin:miter;stroke-opacity:1"
       d="m 407.89227,256.09114 c -0.35369,1.76841 0.08,-0.4401 -0.28637,1.57501 -0.0435,0.23944 -0.10876,0.47499 -0.14318,0.71591 -0.0135,0.0945 -0.0302,0.19581 0,0.28637 0.0466,0.13971 0.23536,0.102 0.14318,0.28636 -0.0604,0.12074 -0.24367,0.1583 -0.28636,0.28637 -0.0302,0.0906 0.0187,0.19276 0,0.28636 -0.0296,0.148 -0.10658,0.28313 -0.14319,0.42955 -0.0116,0.0463 0.0151,0.0979 0,0.14318 -0.0337,0.10125 -0.10943,0.18512 -0.14318,0.28637 -0.0151,0.0453 0,0.0954 0,0.14318 0,0.14318 0.0281,0.28915 0,0.42955 -0.0209,0.10465 -0.12225,0.18172 -0.14318,0.28636 -0.0281,0.14041 0.0281,0.28915 0,0.42955 0.0863,0.25915 -0.23195,0.2663 -0.28637,0.42955 -0.0453,0.13584 0,0.28637 0,0.42955 0,0.0477 0,0.0954 0,0.14318 0,0.0477 0.0337,0.10944 0,0.14318 -0.0337,0.0337 -0.14318,0.0477 -0.14318,0 0,-0.0477 0.10944,-0.0337 0.14318,0 0.0337,0.0337 0,0.0955 0,0.14319"
       id="path3901"
       inkscape:connector-curvature="0" />
    <path
       style="fill:none;stroke:#000000;stroke-width:1px;stroke-linecap:butt;stroke-linejoin:miter;stroke-opacity:1"
       d="m 406.17408,255.08886 c 0.8181,-0.03 1.61921,-0.22816 2.4341,-0.28636 0.28564,-0.0204 0.57273,0 0.8591,0 0.28636,0 0.57273,0 0.85909,0 0.70634,0 0.84535,-0.0392 1.57501,0.14318 0.29284,0.0732 0.56625,0.21315 0.8591,0.28636 8.8e-4,2.2e-4 1.71336,0.28549 1.71819,0.28637 0.23944,0.0435 0.47404,0.11631 0.71591,0.14318 0.18975,0.0211 0.38182,0 0.57273,0 0.23864,0 0.47728,0 0.71592,0 0.19091,0 0.38329,-0.0237 0.57273,0 1.51588,0.18949 -0.35937,0.14318 1.14546,0.14318 0.0954,0 0.19091,0 0.28636,0 0.0477,0 0.10944,0.0337 0.14319,0 0.0337,-0.0337 0,-0.0954 0,-0.14318"
       id="path3903"
       inkscape:connector-curvature="0" />
    <path
       style="fill:none;stroke:#000000;stroke-width:1px;stroke-linecap:butt;stroke-linejoin:miter;stroke-opacity:1"
       d="m 407.17635,259.24116 c 0.3341,0.0477 0.66538,0.12336 1.00228,0.14318 0.47645,0.028 0.95521,-0.0251 1.43183,0 0.73754,0.0388 1.31137,0.13232 2.00456,0.28637 0.1921,0.0427 0.37862,0.11083 0.57273,0.14318 0.0941,0.0157 0.19376,-0.0231 0.28636,0 0.10354,0.0259 0.18512,0.10943 0.28637,0.14318 0.0854,0.0285 0.72037,0 0.85909,0 0.0477,0 0.0955,0 0.14319,0 0.0477,0 0.10943,0.0337 0.14318,0 0.0337,-0.0337 0,-0.0955 0,-0.14318"
       id="path3905"
       inkscape:connector-curvature="0" />
    <path
       style="fill:none;stroke:#000000;stroke-width:1px;stroke-linecap:butt;stroke-linejoin:miter;stroke-opacity:1"
       d="m 419.63325,257.09342 c -0.13891,0.26926 0.0695,0.58128 0,0.85909 -0.0259,0.10354 -0.0955,0.19091 -0.14319,0.28637 -0.0477,0.14318 -0.10657,0.28313 -0.14318,0.42955 -0.15356,0.61426 -0.15871,0.93672 -0.28637,1.57501 -0.0386,0.19296 -0.11535,0.37792 -0.14318,0.57273 -0.0203,0.14174 0.0281,0.28914 0,0.42954 -0.0209,0.10465 -0.10943,0.18512 -0.14318,0.28637 -0.0302,0.0906 0.0675,0.21887 0,0.28637 -0.0337,0.0337 -0.10943,-0.0337 -0.14318,0 -0.0337,0.0337 0.0477,0.14318 0,0.14318 -0.0477,0 0,-0.19091 0,-0.14318 0,0.0954 -0.0427,0.20098 0,0.28636 0.19091,0.38182 0.14318,-0.42955 0.14318,0.14318"
       id="path3907"
       inkscape:connector-curvature="0" />
    <path
       style="fill:none;stroke:#000000;stroke-width:1px;stroke-linecap:butt;stroke-linejoin:miter;stroke-opacity:1"
       d="m 419.63325,255.51841 c 0.28636,-0.0955 0.57273,-0.19091 0.85909,-0.28637 0.14318,0 0.28915,0.0281 0.42955,0 0.10465,-0.0209 0.18283,-0.1173 0.28636,-0.14318 0.0552,-0.0138 0.80387,-0.0138 0.8591,0 0.10354,0.0259 0.18283,0.1173 0.28637,0.14318 0.0926,0.0231 0.19091,0 0.28636,0 0.0477,0 0.1005,-0.0213 0.14318,0 0.0604,0.0302 0.0828,0.113 0.14319,0.14319 0.0427,0.0213 0.10049,-0.0214 0.14318,0 0.0604,0.0302 0.0955,0.0954 0.14318,0.14318 0.0955,0.0955 0.19091,0.19091 0.28637,0.28636 0.0477,0.0477 0.10574,0.087 0.14318,0.14319 0.0592,0.0888 0.0954,0.19091 0.14318,0.28636 0.0477,0.0955 0.084,0.19757 0.14319,0.28637 0.15457,0.23186 0.28636,0.10048 0.28636,0.42955 0,0.0477 0.0337,0.10943 0,0.14318 -0.0337,0.0337 -0.10049,-0.0213 -0.14318,0 -0.0604,0.0302 -0.0955,0.0954 -0.14318,0.14318 -0.0477,0.0477 -0.113,0.0828 -0.14319,0.14318 -0.0427,0.0854 0.0675,0.21887 0,0.28637 -0.0675,0.0675 -0.20099,-0.0427 -0.28636,0 -0.65529,0.32764 0.60758,-0.0593 -0.42955,0.28636 -0.0808,0.0269 -0.33546,0 -0.42955,0 -0.33409,0 -0.66818,0 -1.00228,0 -0.034,0 -0.54064,-0.016 -0.57273,0 -0.0604,0.0302 -0.0828,0.113 -0.14318,0.14319 -0.0637,0.0319 -0.50724,-0.0218 -0.57273,0 -0.064,0.0213 -0.0828,0.11299 -0.14318,0.14318 -0.0777,0.0388 -0.53356,-0.0392 -0.57273,0 -0.0337,0.0337 -0.0337,0.10943 0,0.14318 0.0337,0.0337 0.10943,-0.0337 0.14318,0 0.0337,0.0337 -0.0214,0.1005 0,0.14318 0.0302,0.0604 0.0954,0.0955 0.14318,0.14319 0.0955,0.0954 0.2079,0.17651 0.28637,0.28636 0.16175,0.22646 0.28636,0.47728 0.42954,0.71592 0.14319,0.23863 0.2944,0.47263 0.42955,0.71591 0.10366,0.18658 0.18047,0.38741 0.28637,0.57273 0.1307,0.22873 0.34266,0.45524 0.42955,0.71591 0.0328,0.0985 -0.0422,0.34507 0,0.42955 0.0302,0.0604 0.12183,0.0791 0.14318,0.14318 0.0302,0.0906 -0.0355,0.19774 0,0.28637 0.0639,0.15977 0.2094,0.27563 0.28636,0.42955 0.0559,0.11183 0.16126,0.5908 0.28637,0.71591 0.0755,0.0755 0.2109,0.0677 0.28636,0.14318 0.0856,0.0856 -0.15476,0.28637 0.14319,0.28637 0.0477,0 0.0337,-0.10944 0,-0.14318 -0.0337,-0.0337 -0.0955,0 -0.14319,0"
       id="path3909"
       inkscape:connector-curvature="0" />
    <path
       style="fill:none;stroke:#000000;stroke-width:1px;stroke-linecap:butt;stroke-linejoin:miter;stroke-opacity:1"
       d="m 427.93784,255.37523 c -0.0477,0.28636 -0.0955,0.57273 -0.14318,0.85909 0,0.14318 0.0203,0.28781 0,0.42955 -0.0278,0.19481 -0.12145,0.37715 -0.14319,0.57273 -0.0263,0.23718 0,0.47728 0,0.71591 0,0.42955 0,0.8591 0,1.28865 0,0.19091 0.0314,0.38442 0,0.57273 -0.0175,0.10527 -0.11729,0.18283 -0.14318,0.28636 -0.0315,0.12618 0.0424,0.77439 0,0.8591 -0.0302,0.0604 -0.12184,0.0792 -0.14318,0.14318 -0.0345,0.10362 0.0472,0.52553 0,0.57273 -0.0337,0.0337 -0.10944,-0.0337 -0.14318,0 -0.006,0.006 0,0.52015 0,0.57273"
       id="path3911"
       inkscape:connector-curvature="0" />
    <path
       style="fill:none;stroke:#000000;stroke-width:1px;stroke-linecap:butt;stroke-linejoin:miter;stroke-opacity:1"
       d="m 450.27433,256.3775 c -0.19091,-0.0477 -0.37976,-0.10459 -0.57273,-0.14318 -0.1404,-0.0281 -0.28636,0 -0.42954,0 -0.23864,0 -0.47728,0 -0.71592,0 -0.39706,0 0.22856,0.0213 -0.42955,-0.14318 -0.10888,-0.0272 -0.59601,0 -0.71591,0 -0.0954,0 -0.19091,0 -0.28636,0 -0.0955,0 -0.19581,-0.0302 -0.28637,0 -0.064,0.0213 -0.0792,0.12184 -0.14318,0.14318 -0.21478,0.0716 -0.50114,-0.0716 -0.71592,0 -0.064,0.0213 -0.0828,0.113 -0.14318,0.14318 -0.0427,0.0213 -0.10049,-0.0213 -0.14318,0 -0.16415,0.0821 -0.19917,0.29876 -0.28637,0.42955 -0.0374,0.0562 -0.10574,0.087 -0.14318,0.14319 -0.0592,0.0888 -0.0954,0.19091 -0.14318,0.28636 -0.0477,0.0955 -0.10944,0.18512 -0.14318,0.28637 -0.0142,0.0425 -0.0147,0.68652 0,0.71591 0.0302,0.0604 0.10574,0.087 0.14318,0.14318 0.24109,0.36164 0.1897,0.55267 0.57273,0.8591 0.13437,0.1075 0.27563,0.2094 0.42955,0.28636 0.13499,0.0675 0.28941,0.0871 0.42955,0.14319 0.0991,0.0396 0.19091,0.0954 0.28636,0.14318 0.0955,0.0477 0.20099,0.0792 0.28637,0.14318 0.45085,0.33814 0.0937,0.30511 0.71591,0.42955 0.0936,0.0187 0.19276,-0.0187 0.28636,0 0.28754,-0.0329 0.46657,0.22403 0.71592,0.28636 0.0926,0.0232 0.19376,-0.0232 0.28636,0 0.10354,0.0259 0.18283,0.1173 0.28637,0.14319 0.0926,0.0231 0.20099,-0.0427 0.28636,0 0.0427,0.0213 -0.0337,0.10943 0,0.14318 0.0337,0.0337 0.10944,-0.0337 0.14319,0 0.0337,0.0337 0,0.0955 0,0.14318 0,0.0477 0.0213,0.1005 0,0.14318 -0.0302,0.0604 -0.113,0.0828 -0.14319,0.14319 -0.0213,0.0427 0.0213,0.10049 0,0.14318 -0.0302,0.0604 -0.11299,0.0828 -0.14318,0.14318 -0.0213,0.0427 0.0337,0.10944 0,0.14319 -0.0337,0.0337 -0.10049,-0.0213 -0.14318,0 -0.47488,0.47487 0.13499,-0.0675 -0.28637,0.14318 -0.0604,0.0302 -0.0828,0.113 -0.14318,0.14318 -0.0427,0.0213 -0.10943,-0.0337 -0.14318,0 -0.0337,0.0337 0.0337,0.10943 0,0.14318 -0.0337,0.0337 -0.1005,-0.0213 -0.14318,0 -0.14006,0.07 -0.14632,0.21634 -0.28637,0.28637 -0.0427,0.0213 -0.10049,-0.0214 -0.14318,0 -0.0604,0.0302 -0.0828,0.113 -0.14319,0.14318 -0.0854,0.0427 -0.20098,-0.0427 -0.28636,0 -0.0604,0.0302 -0.0791,0.12184 -0.14318,0.14318 -0.0906,0.0302 -0.19581,-0.0302 -0.28637,0 -0.064,0.0213 -0.0791,0.12184 -0.14318,0.14319 -0.0789,0.0263 -0.73759,0 -0.8591,0 -0.23864,0 -0.47727,0 -0.71591,0 -0.14318,0 -0.28747,0.0178 -0.42955,0 -0.24148,-0.0302 -0.47355,-0.12115 -0.71591,-0.14319 -0.28519,-0.0259 -0.57448,0.0316 -0.8591,0 -0.75413,-0.0838 -0.13663,-0.14154 -0.71591,-0.28636 -0.005,-10e-4 -0.42879,7.6e-4 -0.42955,0 -0.0337,-0.0337 0.0337,-0.10944 0,-0.14318 -0.0337,-0.0337 -0.10943,0.0337 -0.14318,0 -0.0337,-0.0337 -0.0337,-0.10944 0,-0.14319 0.0338,-0.0337 0.0955,0 0.14318,0"
       id="path3913"
       inkscape:connector-curvature="0" />
    <path
       style="fill:none;stroke:#000000;stroke-width:1px;stroke-linecap:butt;stroke-linejoin:miter;stroke-opacity:1"
       d="m 451.56298,263.53664 c 0,0.0477 -0.0477,0.14318 0,0.14318 0.0477,0 0,-0.0955 0,-0.14318 0,-0.38182 -0.0477,0.0477 0.14318,-0.14319 0.0337,-0.0337 -0.0337,-0.10948 0,-0.14318 0.29637,-0.29625 -0.0116,0.45271 0.28637,-0.14318 0.0213,-0.0427 -0.0213,-0.10048 0,-0.14318 0.0302,-0.0604 0.11298,-0.0828 0.14318,-0.14319 0.0213,-0.0427 -0.0213,-0.10048 0,-0.14318 0.0859,-0.17182 0.34365,-0.25773 0.42955,-0.42955 0.0213,-0.0427 -0.0213,-0.10048 0,-0.14318 0.0302,-0.0604 0.10578,-0.087 0.14318,-0.14318 0.14045,-0.21068 0.20876,-0.48307 0.28636,-0.71592 0.24866,-0.74601 -0.0197,-0.15436 0.42955,-0.71591 0.28179,-0.35224 0.22702,-0.45662 0.57273,-0.71591 0.0854,-0.0641 0.21087,-0.0677 0.28637,-0.14318 0.27041,-0.27041 0.0676,-0.27028 0.14318,-0.57274 0.0536,-0.2143 0.35255,-0.56193 0.42955,-0.71591 0.0675,-0.13499 0.0757,-0.29455 0.14318,-0.42955 0.077,-0.15391 0.20937,-0.27563 0.28637,-0.42954 0.0675,-0.135 0.0757,-0.29456 0.14318,-0.42955 0.106,-0.212 0.89396,-0.64896 0.71591,-0.8591 0.28637,0.28637 0.61046,0.53942 0.8591,0.8591 0.0757,0.0973 0.27573,0.95973 0.28636,1.00228 0.0477,0.19091 0.0955,0.38182 0.14319,0.57273 0.0477,0.19091 0.11535,0.37792 0.14318,0.57273 0.0203,0.14174 -0.0202,0.2878 0,0.42955 0.0278,0.1948 0.11535,0.37792 0.14318,0.57273 0.0202,0.14174 -0.0281,0.28914 0,0.42954 0.0209,0.10465 0.10944,0.18512 0.14319,0.28637 0.0328,0.0985 -0.0423,0.34507 0,0.42955 0.0302,0.0604 0.11299,0.0828 0.14318,0.14318 0.0469,0.0938 -0.0424,0.58885 0,0.71591 0.0337,0.10125 0.10943,0.18512 0.14318,0.28637 0.0328,0.0985 -0.0422,0.34507 0,0.42955 0.0302,0.0604 0.113,0.0828 0.14318,0.14318 0.0284,0.0568 -0.0293,0.40028 0,0.42955 0.0337,0.0337 0.14319,-0.0477 0.14319,0 0,0.0477 -0.0955,0 -0.14319,0"
       id="path3915"
       inkscape:connector-curvature="0" />
    <path
       style="fill:none;stroke:#000000;stroke-width:1px;stroke-linecap:butt;stroke-linejoin:miter;stroke-opacity:1"
       d="m 452.85162,260.95935 c 1.18297,-0.59149 -0.0338,-0.0898 1.14546,-0.28637 0.10527,-0.0175 0.18283,-0.11729 0.28637,-0.14318 0.0926,-0.0231 0.19091,0 0.28636,0 0.0955,0 0.19091,0 0.28637,0 0.33409,0 0.66819,0 1.00228,0 0.10149,0 0.82207,-0.0185 0.85909,0 0.0604,0.0302 0.0828,0.113 0.14319,0.14318 0.037,0.0185 0.7576,0 0.85909,0"
       id="path3917"
       inkscape:connector-curvature="0" />
    <path
       style="fill:none;stroke:#000000;stroke-width:1px;stroke-linecap:butt;stroke-linejoin:miter;stroke-opacity:1"
       d="m 463.59032,255.94796 c 0,0.19091 -0.0211,0.38298 0,0.57273 0.0269,0.24187 0.12297,0.47339 0.14318,0.71591 0.12946,1.55345 -0.19053,0.47914 0.14319,2.14774 0.0681,0.34071 0.20823,0.66372 0.28636,1.00228 0.55762,2.41636 -0.10871,-0.33144 0.14318,1.43183 0.0213,0.14941 0.11838,0.28067 0.14319,0.42954 0.0235,0.14124 0,0.28637 0,0.42955 0.0477,0.14318 0.11358,0.28155 0.14318,0.42955 0.0187,0.0936 0,0.19091 0,0.28636 0,0.28637 0,0.57274 0,0.8591 0,0.0477 0,0.0955 0,0.14318 0,0.0477 0.0477,0.14319 0,0.14319 -0.0477,0 -0.0337,-0.10944 0,-0.14319 0.0337,-0.0337 0.0955,0 0.14318,0"
       id="path3919"
       inkscape:connector-curvature="0" />
    <path
       style="fill:none;stroke:#000000;stroke-width:1px;stroke-linecap:butt;stroke-linejoin:miter;stroke-opacity:1"
       d="m 460.01076,255.94796 c 0.47057,-0.18848 0.94142,-0.14319 1.43182,-0.14319 0.0477,0 0.0979,0.0151 0.14318,0 0.10125,-0.0337 0.19091,-0.0954 0.28637,-0.14318 0.14318,0 0.28915,0.0281 0.42955,0 0.10465,-0.0209 0.18171,-0.12225 0.28636,-0.14318 0.14041,-0.0281 0.28637,0 0.42955,0 0.0955,0 0.19581,0.0302 0.28637,0 0.064,-0.0213 0.0828,-0.113 0.14318,-0.14318 0.0764,-0.0382 0.20998,0.0382 0.28636,0 0.0604,-0.0302 0.0791,-0.12184 0.14319,-0.14319 0.13583,-0.0453 0.28636,0 0.42954,0 0.38183,0 0.76365,0 1.14547,0 0.0477,0 0.0955,0 0.14318,0 0.0477,0 0.10049,0.0213 0.14318,0 0.0604,-0.0302 0.0828,-0.11299 0.14318,-0.14318 0.0903,-0.0452 0.62559,0.0452 0.71592,0 0.0604,-0.0302 0.0828,-0.113 0.14318,-0.14318 0.0427,-0.0213 0.0955,0 0.14318,0 0.0477,0 0.0955,0 0.14319,0 0.0477,0 0.0954,0 0.14318,0 0.0477,0 0.10943,0.0337 0.14318,0 0.0337,-0.0337 -0.0337,-0.10944 0,-0.14318 0.0337,-0.0337 0.14318,-0.0477 0.14318,0 0,0.17693 -0.20079,0.14318 -0.28636,0.14318"
       id="path3921"
       inkscape:connector-curvature="0" />
    <path
       style="fill:none;stroke:#000000;stroke-width:1px;stroke-linecap:butt;stroke-linejoin:miter;stroke-opacity:1"
       d="m 481.77452,256.66387 c -0.11479,-0.6035 -0.49824,-0.0344 -0.71591,-0.14318 -0.0604,-0.0302 -0.0828,-0.113 -0.14319,-0.14319 -0.0376,-0.0188 -0.49785,0 -0.57273,0 -0.0477,0 -0.0955,0 -0.14318,0 -0.0477,0 -0.10049,-0.0213 -0.14318,0 -0.0604,0.0302 -0.0828,0.113 -0.14319,0.14319 -0.13499,0.0675 -0.28823,0.0902 -0.42954,0.14318 -0.24066,0.0903 -0.47526,0.19612 -0.71592,0.28637 -0.14131,0.053 -0.29455,0.0757 -0.42954,0.14318 -0.15392,0.077 -0.26978,0.22245 -0.42955,0.28636 -0.0886,0.0354 -0.19581,-0.0302 -0.28637,0 -0.28492,0.095 -0.0668,0.13364 -0.14318,0.28637 -0.0302,0.0604 -0.12184,0.0792 -0.14318,0.14318 -0.0302,0.0906 0,0.19091 0,0.28637 0,0.14318 -0.0281,0.28914 0,0.42954 0.0209,0.10465 0.10943,0.18512 0.14318,0.28637 0.0302,0.0906 -0.0427,0.20099 0,0.28636 0.15829,0.31659 0.0889,0.0444 0.28636,0.14319 0.0604,0.0302 0.0892,0.10268 0.14319,0.14318 0.13766,0.10325 0.28636,0.19091 0.42955,0.28637 1.04652,0.69768 -0.26936,-0.15392 1.00227,0.57273 0.14941,0.0854 0.28199,0.19782 0.42955,0.28636 0.0915,0.0549 0.19757,0.084 0.28637,0.14318 0.0562,0.0374 0.0828,0.113 0.14318,0.14319 0.0427,0.0213 0.10049,-0.0214 0.14318,0 0.47488,0.47487 -0.13499,-0.0675 0.28637,0.14318 0.0604,0.0302 0.0954,0.0955 0.14318,0.14318 0.0955,0.0955 0.18477,0.19747 0.28637,0.28637 3.0831,2.56925 -0.67098,-0.67098 1.28864,1.28864 0.12168,0.12168 0.30787,0.16468 0.42955,0.28637 0.0684,0.0684 0.20425,0.36848 0.14318,0.42954 -0.0337,0.0337 -0.10049,-0.0213 -0.14318,0 -0.0604,0.0302 -0.0828,0.113 -0.14318,0.14319 -0.0427,0.0213 -0.0955,0 -0.14319,0 -0.0955,0 -0.19376,-0.0231 -0.28636,0 -0.74349,0.18587 0.15285,0.14318 -0.57273,0.14318 -0.0749,0 -0.53509,-0.0188 -0.57273,0 -0.0604,0.0302 -0.0777,0.12681 -0.14319,0.14318 -0.1389,0.0347 -0.28636,0 -0.42954,0 -0.14319,0 -0.28637,0 -0.42955,0 -0.19091,0 -0.38374,0.027 -0.57273,0 -0.14941,-0.0213 -0.28155,-0.11358 -0.42955,-0.14318 -0.0753,-0.0151 -0.69573,0.0202 -0.71591,0 -0.0337,-0.0337 0.0337,-0.10943 0,-0.14318 -0.0675,-0.0675 -0.20099,0.0427 -0.28637,0 -0.0604,-0.0302 -0.0828,-0.113 -0.14318,-0.14319 -0.0427,-0.0213 -0.0955,0 -0.14319,0 -0.0477,-0.0477 -0.0828,-0.11299 -0.14318,-0.14318 -0.13499,-0.0675 -0.29455,-0.0757 -0.42955,-0.14318 -0.15391,-0.077 -0.28198,-0.19783 -0.42954,-0.28637 -0.0915,-0.0549 -0.20099,-0.0792 -0.28637,-0.14318 -0.10799,-0.081 -0.17837,-0.20537 -0.28636,-0.28636 -0.0854,-0.064 -0.21091,-0.0677 -0.28637,-0.14319 -0.0337,-0.0337 0.0955,0 0.14318,0"
       id="path3923"
       inkscape:connector-curvature="0" />
    <path
       style="fill:none;stroke:#000000;stroke-width:1px;stroke-linecap:butt;stroke-linejoin:miter;stroke-opacity:1"
       d="m 484.78136,258.0957 c 0,0.47727 0,0.95455 0,1.43182 0,0.19091 -0.027,0.38374 0,0.57273 0.0213,0.14941 0.11358,0.28155 0.14318,0.42955 0.0281,0.1404 0,0.28637 0,0.42955 0,0.0477 0.0213,0.10049 0,0.14318 -0.0302,0.0604 -0.14318,0.0757 -0.14318,0.14318 0,0.0675 0.11299,0.0828 0.14318,0.14319 0.0213,0.0427 0,0.0954 0,0.14318 0,0.0955 -0.0302,0.19581 0,0.28637 0.0213,0.064 0.11299,0.0828 0.14318,0.14318 0.13499,0.26999 0.17426,0.57883 0.28637,0.85909 -0.0507,0.24439 0.2094,0.27564 0.28636,0.42955 0.0213,0.0427 -0.0337,0.10944 0,0.14318 0.0337,0.0337 0.10944,-0.0337 0.14318,0 0.0337,0.0337 -0.0337,0.10944 0,0.14319 0.0439,0.0439 0.46646,-0.0266 0.57273,0 0.10354,0.0259 0.18283,0.1173 0.28637,0.14318 0.0104,0.003 0.71224,0.002 0.71591,0 0.0427,-0.0213 -0.0337,-0.10943 0,-0.14318 0.0337,-0.0337 0.1005,0.0213 0.14319,0 0.0604,-0.0302 0.0954,-0.0955 0.14318,-0.14319 0.0477,-0.0477 0.0955,-0.0955 0.14318,-0.14318 0.11184,-0.11184 0.34718,-0.30599 0.42955,-0.42955 0.25022,-0.37532 0.0535,-0.25021 0.28636,-0.71591 0.21833,-0.43664 0.11351,0.26187 0.28637,-0.42955 10e-6,-6e-5 0.0149,-0.68605 0,-0.71591 -0.0302,-0.0604 -0.12184,-0.0792 -0.14318,-0.14318 -0.0264,-0.0792 0,-0.71491 0,-0.8591 0,-0.0477 0.0151,-0.0979 0,-0.14318 -0.0337,-0.10125 -0.10944,-0.18512 -0.14319,-0.28637 -0.0269,-0.0808 0,-0.33546 0,-0.42955 0,-0.0645 0.0218,-0.38597 0,-0.42954 -0.0302,-0.0604 -0.11299,-0.0828 -0.14318,-0.14319 -0.0213,-0.0427 0,-0.0955 0,-0.14318 0,-0.0477 0,-0.0954 0,-0.14318 0,-0.23864 0,-0.47728 0,-0.71591 0,-0.38182 0.0477,0.0477 -0.14318,-0.14319 -0.0337,-0.0337 -0.0477,-0.14318 0,-0.14318 0.0477,0 0,0.0955 0,0.14318"
       id="path3925"
       inkscape:connector-curvature="0" />
    <path
       style="fill:none;stroke:#000000;stroke-width:1px;stroke-linecap:butt;stroke-linejoin:miter;stroke-opacity:1"
       d="m 492.22685,257.2366 c -0.0954,0.19091 -0.2302,0.36681 -0.28636,0.57273 -0.0888,0.32559 -0.0986,0.66776 -0.14318,1.00228 -0.0509,0.38142 -0.11918,0.76142 -0.14319,1.14546 -0.0238,0.38108 0,0.76364 0,1.14546 0,0.57273 0,1.14546 0,1.71819 0,0.3341 0,0.66819 0,1.00228 0,0.19091 0.027,0.38374 0,0.57273 -0.0213,0.14941 -0.0954,0.28637 -0.14318,0.42955 -0.0477,0.14318 -0.0955,0.28637 -0.14318,0.42955 -0.0477,0.14318 -0.12184,0.28014 -0.14319,0.42955 -0.027,0.18899 0.027,0.38374 0,0.57273 -0.0213,0.14941 -0.11837,0.28067 -0.14318,0.42955 -0.0235,0.14123 0,0.28636 0,0.42954 0,0.0179 0,0.62441 0,0.71592 0,0.0954 0,0.19091 0,0.28636 0,0.0477 -0.0151,0.0979 0,0.14319 0.0337,0.10124 0.10944,0.18511 0.14318,0.28636 0.0302,0.0906 -0.0675,0.21887 0,0.28637 0.0337,0.0337 0.10944,0.0337 0.14319,0 0.0675,-0.0675 -0.0302,-0.19581 0,-0.28637 0.0337,-0.10125 0.10354,-0.18728 0.14318,-0.28636 0.35386,-0.88466 -0.0494,-0.0443 0.28637,-0.71592"
       id="path3927"
       inkscape:connector-curvature="0" />
    <path
       style="fill:none;stroke:#000000;stroke-width:1px;stroke-linecap:butt;stroke-linejoin:miter;stroke-opacity:1"
       d="m 492.37004,258.0957 c 0.19091,0.19091 0.39702,0.36774 0.57273,0.57273 0.53245,0.62119 0.0935,0.21185 0.42954,0.71591 0.0749,0.11232 0.19091,0.19091 0.28637,0.28637 0.19091,0.19091 0.38182,0.38182 0.57273,0.57273 0.0477,0.0477 0.0955,0.0955 0.14318,0.14318 0.0477,0.0477 0.113,0.0828 0.14319,0.14318 0.0213,0.0427 -0.0213,0.1005 0,0.14318 0.0635,0.12691 0.34265,0.29921 0.42954,0.42955 0.0592,0.0888 0.084,0.19757 0.14319,0.28637 0.0374,0.0562 0.11299,0.0828 0.14318,0.14318 0.0213,0.0427 -0.0213,0.10049 0,0.14318 0.0704,0.1409 0.50228,0.43184 0.57273,0.57273 0.0213,0.0427 -0.0213,0.1005 0,0.14319 0.0302,0.0604 0.113,0.0828 0.14318,0.14318 0.0213,0.0427 -0.0116,0.0969 0,0.14318 0.0366,0.14642 0.0955,0.28637 0.14319,0.42955 0.0477,0.14318 0.10657,0.28313 0.14318,0.42955 0.013,0.052 -0.0175,0.41201 0,0.42955 0.0338,0.0337 0.10943,-0.0337 0.14318,0 0.0337,0.0337 -0.0213,0.10049 0,0.14318 0.0704,0.14089 0.50228,0.43183 0.57273,0.57273 0.0214,0.0427 -0.0337,0.10943 0,0.14318 0.0337,0.0337 0.10944,0.0337 0.14318,0 0.0337,-0.0337 0,-0.0954 0,-0.14318 0,-0.14318 0,-0.28637 0,-0.42955 0,-0.66819 0,-1.33637 0,-2.00456 0,-0.14318 0,-0.28636 0,-0.42954 0,-0.14319 -0.0235,-0.28832 0,-0.42955 0.0248,-0.14888 0.12447,-0.27979 0.14319,-0.42955 0.0296,-0.2368 0,-0.47728 0,-0.71591 0,-0.57273 -0.0408,-1.14692 0,-1.7182 0.024,-0.33662 0.1173,-0.66578 0.14318,-1.00227 0.0403,-0.52346 0,-1.05001 0,-1.57501 0,-0.19091 0.0314,-0.38442 0,-0.57273 -0.0175,-0.10527 -0.10944,-0.18512 -0.14318,-0.28637 -0.0151,-0.0453 0,-0.0954 0,-0.14318 0,-0.0477 -0.0337,-0.10944 0,-0.14318 0.0337,-0.0337 0.14318,-0.0477 0.14318,0 0,0.0477 -0.0955,0 -0.14318,0"
       id="path3929"
       inkscape:connector-curvature="0" />
    <path
       sodipodi:type="star"
       style="color:#000000;fill:#fafa0e;fill-opacity:1;fill-rule:nonzero;stroke:#ffffff;stroke-width:0.80000001;stroke-linecap:butt;stroke-linejoin:miter;stroke-miterlimit:4;stroke-opacity:1;stroke-dasharray:none;stroke-dashoffset:0;marker:none;visibility:visible;display:inline;overflow:visible;enable-background:accumulate"
       id="path3931"
       sodipodi:sides="5"
       sodipodi:cx="239.819"
       sodipodi:cy="384.94138"
       sodipodi:r1="7.0680995"
       sodipodi:r2="3.5340495"
       sodipodi:arg1="0.87605805"
       sodipodi:arg2="1.5043766"
       inkscape:flatsided="false"
       inkscape:rounded="0"
       inkscape:randomized="0"
       d="m 244.34389,390.37124 -4.29033,-1.90361 -4.0004,2.45509 0.48465,-4.66859 -3.57111,-3.04595 4.58986,-0.98174 1.79332,-4.33758 2.35204,4.06184 4.67946,0.36517 -3.13623,3.4921 z"
       inkscape:transform-center-x="0.14496489"
       inkscape:transform-center-y="-0.53558538"
       transform="translate(-2.7896147,-111.67441)" />
    <path
       sodipodi:type="star"
       style="color:#000000;fill:#fafa0e;fill-opacity:1;fill-rule:nonzero;stroke:#ffffff;stroke-width:0.80000001;stroke-linecap:butt;stroke-linejoin:miter;stroke-miterlimit:4;stroke-opacity:1;stroke-dasharray:none;stroke-dashoffset:0;marker:none;visibility:visible;display:inline;overflow:visible;enable-background:accumulate"
       id="path3931-7"
       sodipodi:sides="5"
       sodipodi:cx="239.819"
       sodipodi:cy="384.94138"
       sodipodi:r1="7.0680995"
       sodipodi:r2="3.5340495"
       sodipodi:arg1="0.87605805"
       sodipodi:arg2="1.5043766"
       inkscape:flatsided="false"
       inkscape:rounded="0"
       inkscape:randomized="0"
       d="m 244.34389,390.37124 -4.29033,-1.90361 -4.0004,2.45509 0.48465,-4.66859 -3.57111,-3.04595 4.58986,-0.98174 1.79332,-4.33758 2.35204,4.06184 4.67946,0.36517 -3.13623,3.4921 z"
       inkscape:transform-center-x="0.14496489"
       inkscape:transform-center-y="-0.53558538"
       transform="translate(39.889291,-92.134306)" />
    <path
       sodipodi:type="star"
       style="color:#000000;fill:#fafa0e;fill-opacity:1;fill-rule:nonzero;stroke:#ffffff;stroke-width:0.80000001;stroke-linecap:butt;stroke-linejoin:miter;stroke-miterlimit:4;stroke-opacity:1;stroke-dasharray:none;stroke-dashoffset:0;marker:none;visibility:visible;display:inline;overflow:visible;enable-background:accumulate"
       id="path3931-3"
       sodipodi:sides="5"
       sodipodi:cx="239.819"
       sodipodi:cy="384.94138"
       sodipodi:r1="7.0680995"
       sodipodi:r2="3.5340495"
       sodipodi:arg1="0.87605805"
       sodipodi:arg2="1.5043766"
       inkscape:flatsided="false"
       inkscape:rounded="0"
       inkscape:randomized="0"
       d="m 244.34389,390.37124 -4.29033,-1.90361 -4.0004,2.45509 0.48465,-4.66859 -3.57111,-3.04595 4.58986,-0.98174 1.79332,-4.33758 2.35204,4.06184 4.67946,0.36517 -3.13623,3.4921 z"
       inkscape:transform-center-x="0.14496489"
       inkscape:transform-center-y="-0.53558538"
       transform="translate(61.15626,-84.441998)" />
    <path
       sodipodi:type="star"
       style="color:#000000;fill:#fafa0e;fill-opacity:1;fill-rule:nonzero;stroke:#ffffff;stroke-width:0.80000001;stroke-linecap:butt;stroke-linejoin:miter;stroke-miterlimit:4;stroke-opacity:1;stroke-dasharray:none;stroke-dashoffset:0;marker:none;visibility:visible;display:inline;overflow:visible;enable-background:accumulate"
       id="path3931-1"
       sodipodi:sides="5"
       sodipodi:cx="239.819"
       sodipodi:cy="384.94138"
       sodipodi:r1="7.0680995"
       sodipodi:r2="3.5340495"
       sodipodi:arg1="0.87605805"
       sodipodi:arg2="1.5043766"
       inkscape:flatsided="false"
       inkscape:rounded="0"
       inkscape:randomized="0"
       d="m 244.34389,390.37124 -4.29033,-1.90361 -4.0004,2.45509 0.48465,-4.66859 -3.57111,-3.04595 4.58986,-0.98174 1.79332,-4.33758 2.35204,4.06184 4.67946,0.36517 -3.13623,3.4921 z"
       inkscape:transform-center-x="0.14496489"
       inkscape:transform-center-y="-0.53558538"
       transform="translate(39.436803,-66.794939)" />
    <path
       sodipodi:type="star"
       style="color:#000000;fill:#fafa0e;fill-opacity:1;fill-rule:nonzero;stroke:#ffffff;stroke-width:0.80000001;stroke-linecap:butt;stroke-linejoin:miter;stroke-miterlimit:4;stroke-opacity:1;stroke-dasharray:none;stroke-dashoffset:0;marker:none;visibility:visible;display:inline;overflow:visible;enable-background:accumulate"
       id="path3931-19"
       sodipodi:sides="5"
       sodipodi:cx="239.819"
       sodipodi:cy="384.94138"
       sodipodi:r1="7.0680995"
       sodipodi:r2="3.5340495"
       sodipodi:arg1="0.87605805"
       sodipodi:arg2="1.5043766"
       inkscape:flatsided="false"
       inkscape:rounded="0"
       inkscape:randomized="0"
       d="m 244.34389,390.37124 -4.29033,-1.90361 -4.0004,2.45509 0.48465,-4.66859 -3.57111,-3.04595 4.58986,-0.98174 1.79332,-4.33758 2.35204,4.06184 4.67946,0.36517 -3.13623,3.4921 z"
       inkscape:transform-center-x="0.14496489"
       inkscape:transform-center-y="-0.53558538"
       transform="translate(101.88024,-111.59132)" />
    <path
       sodipodi:type="star"
       style="color:#000000;fill:#fafa0e;fill-opacity:1;fill-rule:nonzero;stroke:#ffffff;stroke-width:0.80000001;stroke-linecap:butt;stroke-linejoin:miter;stroke-miterlimit:4;stroke-opacity:1;stroke-dasharray:none;stroke-dashoffset:0;marker:none;visibility:visible;display:inline;overflow:visible;enable-background:accumulate"
       id="path3931-0"
       sodipodi:sides="5"
       sodipodi:cx="239.819"
       sodipodi:cy="384.94138"
       sodipodi:r1="7.0680995"
       sodipodi:r2="3.5340495"
       sodipodi:arg1="0.87605805"
       sodipodi:arg2="1.5043766"
       inkscape:flatsided="false"
       inkscape:rounded="0"
       inkscape:randomized="0"
       d="m 244.34389,390.37124 -4.29033,-1.90361 -4.0004,2.45509 0.48465,-4.66859 -3.57111,-3.04595 4.58986,-0.98174 1.79332,-4.33758 2.35204,4.06184 4.67946,0.36517 -3.13623,3.4921 z"
       inkscape:transform-center-x="0.14496489"
       inkscape:transform-center-y="-0.53558538"
       transform="translate(88.305581,-65.437473)" />
    <path
       sodipodi:type="star"
       style="color:#000000;fill:#fafa0e;fill-opacity:1;fill-rule:nonzero;stroke:#ffffff;stroke-width:0.80000001;stroke-linecap:butt;stroke-linejoin:miter;stroke-miterlimit:4;stroke-opacity:1;stroke-dasharray:none;stroke-dashoffset:0;marker:none;visibility:visible;display:inline;overflow:visible;enable-background:accumulate"
       id="path3931-5"
       sodipodi:sides="5"
       sodipodi:cx="239.819"
       sodipodi:cy="384.94138"
       sodipodi:r1="7.0680995"
       sodipodi:r2="3.5340495"
       sodipodi:arg1="0.87605805"
       sodipodi:arg2="1.5043766"
       inkscape:flatsided="false"
       inkscape:rounded="0"
       inkscape:randomized="0"
       d="m 244.34389,390.37124 -4.29033,-1.90361 -4.0004,2.45509 0.48465,-4.66859 -3.57111,-3.04595 4.58986,-0.98174 1.79332,-4.33758 2.35204,4.06184 4.67946,0.36517 -3.13623,3.4921 z"
       inkscape:transform-center-x="0.14496489"
       inkscape:transform-center-y="-0.53558538"
       transform="translate(79.255807,-43.718016)" />
    <path
       sodipodi:type="star"
       style="color:#000000;fill:#fafa0e;fill-opacity:1;fill-rule:nonzero;stroke:#ffffff;stroke-width:0.80000001;stroke-linecap:butt;stroke-linejoin:miter;stroke-miterlimit:4;stroke-opacity:1;stroke-dasharray:none;stroke-dashoffset:0;marker:none;visibility:visible;display:inline;overflow:visible;enable-background:accumulate"
       id="path3931-77"
       sodipodi:sides="5"
       sodipodi:cx="239.819"
       sodipodi:cy="384.94138"
       sodipodi:r1="7.0680995"
       sodipodi:r2="3.5340495"
       sodipodi:arg1="0.87605805"
       sodipodi:arg2="1.5043766"
       inkscape:flatsided="false"
       inkscape:rounded="0"
       inkscape:randomized="0"
       d="m 244.34389,390.37124 -4.29033,-1.90361 -4.0004,2.45509 0.48465,-4.66859 -3.57111,-3.04595 4.58986,-0.98174 1.79332,-4.33758 2.35204,4.06184 4.67946,0.36517 -3.13623,3.4921 z"
       inkscape:transform-center-x="0.14496489"
       inkscape:transform-center-y="-0.53558538"
       transform="translate(145.31916,-89.419374)" />
    <path
       sodipodi:type="star"
       style="color:#000000;fill:#fafa0e;fill-opacity:1;fill-rule:nonzero;stroke:#ffffff;stroke-width:0.80000001;stroke-linecap:butt;stroke-linejoin:miter;stroke-miterlimit:4;stroke-opacity:1;stroke-dasharray:none;stroke-dashoffset:0;marker:none;visibility:visible;display:inline;overflow:visible;enable-background:accumulate"
       id="path3931-4"
       sodipodi:sides="5"
       sodipodi:cx="239.819"
       sodipodi:cy="384.94138"
       sodipodi:r1="7.0680995"
       sodipodi:r2="3.5340495"
       sodipodi:arg1="0.87605805"
       sodipodi:arg2="1.5043766"
       inkscape:flatsided="false"
       inkscape:rounded="0"
       inkscape:randomized="0"
       d="m 244.34389,390.37124 -4.29033,-1.90361 -4.0004,2.45509 0.48465,-4.66859 -3.57111,-3.04595 4.58986,-0.98174 1.79332,-4.33758 2.35204,4.06184 4.67946,0.36517 -3.13623,3.4921 z"
       inkscape:transform-center-x="0.14496489"
       inkscape:transform-center-y="-0.53558538"
       transform="translate(165.22866,-110.23385)" />
    <path
       sodipodi:type="star"
       style="color:#000000;fill:#fafa0e;fill-opacity:1;fill-rule:nonzero;stroke:#ffffff;stroke-width:0.80000001;stroke-linecap:butt;stroke-linejoin:miter;stroke-miterlimit:4;stroke-opacity:1;stroke-dasharray:none;stroke-dashoffset:0;marker:none;visibility:visible;display:inline;overflow:visible;enable-background:accumulate"
       id="path3931-06"
       sodipodi:sides="5"
       sodipodi:cx="239.819"
       sodipodi:cy="384.94138"
       sodipodi:r1="7.0680995"
       sodipodi:r2="3.5340495"
       sodipodi:arg1="0.87605805"
       sodipodi:arg2="1.5043766"
       inkscape:flatsided="false"
       inkscape:rounded="0"
       inkscape:randomized="0"
       d="m 244.34389,390.37124 -4.29033,-1.90361 -4.0004,2.45509 0.48465,-4.66859 -3.57111,-3.04595 4.58986,-0.98174 1.79332,-4.33758 2.35204,4.06184 4.67946,0.36517 -3.13623,3.4921 z"
       inkscape:transform-center-x="0.14496489"
       inkscape:transform-center-y="-0.53558538"
       transform="translate(185.59065,-105.25648)" />
    <path
       sodipodi:type="star"
       style="color:#000000;fill:#fafa0e;fill-opacity:1;fill-rule:nonzero;stroke:#ffffff;stroke-width:0.80000001;stroke-linecap:butt;stroke-linejoin:miter;stroke-miterlimit:4;stroke-opacity:1;stroke-dasharray:none;stroke-dashoffset:0;marker:none;visibility:visible;display:inline;overflow:visible;enable-background:accumulate"
       id="path3931-47"
       sodipodi:sides="5"
       sodipodi:cx="239.819"
       sodipodi:cy="384.94138"
       sodipodi:r1="7.0680995"
       sodipodi:r2="3.5340495"
       sodipodi:arg1="0.87605805"
       sodipodi:arg2="1.5043766"
       inkscape:flatsided="false"
       inkscape:rounded="0"
       inkscape:randomized="0"
       d="m 244.34389,390.37124 -4.29033,-1.90361 -4.0004,2.45509 0.48465,-4.66859 -3.57111,-3.04595 4.58986,-0.98174 1.79332,-4.33758 2.35204,4.06184 4.67946,0.36517 -3.13623,3.4921 z"
       inkscape:transform-center-x="0.14496489"
       inkscape:transform-center-y="-0.53558538"
       transform="translate(185.59065,-64.532496)" />
    <path
       sodipodi:type="star"
       style="color:#000000;fill:#fafa0e;fill-opacity:1;fill-rule:nonzero;stroke:#ffffff;stroke-width:0.80000001;stroke-linecap:butt;stroke-linejoin:miter;stroke-miterlimit:4;stroke-opacity:1;stroke-dasharray:none;stroke-dashoffset:0;marker:none;visibility:visible;display:inline;overflow:visible;enable-background:accumulate"
       id="path3931-48"
       sodipodi:sides="5"
       sodipodi:cx="239.819"
       sodipodi:cy="384.94138"
       sodipodi:r1="7.0680995"
       sodipodi:r2="3.5340495"
       sodipodi:arg1="0.87605805"
       sodipodi:arg2="1.5043766"
       inkscape:flatsided="false"
       inkscape:rounded="0"
       inkscape:randomized="0"
       d="m 244.34389,390.37124 -4.29033,-1.90361 -4.0004,2.45509 0.48465,-4.66859 -3.57111,-3.04595 4.58986,-0.98174 1.79332,-4.33758 2.35204,4.06184 4.67946,0.36517 -3.13623,3.4921 z"
       inkscape:transform-center-x="0.14496489"
       inkscape:transform-center-y="-0.53558538"
       transform="translate(215.00241,-110.23385)" />
  </g>
</svg>
